<svg width="756" height="500" viewBox="0 0 756 500" fill="none" xmlns="http://www.w3.org/2000/svg">
<g clip-path="url(#clip0_404_1070)">
<path d="M382.973 140.53C376.246 129.426 368.276 117.57 355.793 113.944C341.337 109.745 326.488 118.086 313.892 126.318C276.223 150.935 239.947 177.613 205.23 206.229L205.268 206.661C232.296 204.8 259.325 202.94 286.353 201.079C305.881 199.735 326.08 198.205 343.337 188.985C349.886 185.486 356.269 180.812 363.69 180.486C372.909 180.082 380.948 186.508 387.265 193.223C424.634 232.942 435.448 293.682 477.373 328.578C450.937 263.503 419.371 200.623 382.973 140.53Z" fill="#FBFBFE"/>
<path d="M612.676 477.42C608.543 472.212 606.855 470.992 602.778 465.735C569.588 422.888 538.391 378.594 509.189 332.852C489.354 301.786 470.502 270.123 452.634 237.864C444.127 222.527 435.854 207.071 427.814 191.494C421.574 179.415 415.475 167.265 409.514 155.042C407.809 151.551 406.153 148.044 404.505 144.529C400.621 136.263 396.81 127.957 392.718 119.803C388.055 110.51 382.378 100.767 373.815 94.5233C369.918 91.5652 365.258 89.7754 360.38 89.363C353.409 88.9136 346.977 91.7867 340.93 94.9246C296.693 117.949 255.277 146.816 217.818 179.664C180.262 212.586 146.694 249.779 117.796 290.486C116.912 291.746 114.822 290.542 115.714 289.274C119.228 284.315 122.811 279.408 126.464 274.556C171.886 214.258 227.58 162.406 291 121.368C301.67 114.466 312.54 107.888 323.612 101.634C329.191 98.4798 334.796 95.3659 340.496 92.4447C346.084 89.5797 352.018 87.0035 358.402 86.9072C380.127 86.5702 391.375 111.128 399.102 127.652C401.53 132.852 403.988 138.037 406.475 143.205C415.874 162.827 425.635 182.27 435.757 201.533C442.005 213.427 448.389 225.251 454.909 237.005C475.203 273.609 496.772 309.471 519.618 344.593C549.881 391.116 579.904 432.214 614.38 475.719C615.329 476.923 613.633 478.64 612.676 477.42Z" fill="#B1B1B7"/>
<path d="M215.67 167.538C214.408 166.134 213.154 164.729 211.884 163.325C201.865 152.266 191.116 141.335 177.359 134.995C170.799 131.877 163.638 130.22 156.373 130.14C148.864 130.164 141.523 132.13 134.585 134.883C131.304 136.191 128.096 137.676 124.936 139.257C121.326 141.07 117.78 143.005 114.251 144.955C107.625 148.614 101.086 152.434 94.6325 156.415C81.792 164.336 69.3536 172.861 57.3174 181.992C51.0779 186.727 44.9672 191.617 38.9853 196.662C33.4215 201.349 27.9703 206.161 22.6315 211.1C21.4899 212.151 19.7852 210.449 20.9269 209.398C22.3339 208.09 23.7571 206.79 25.1802 205.506C29.2004 201.878 33.2849 198.321 37.4338 194.832C44.9994 188.46 52.761 182.334 60.7184 176.454C73.0925 167.305 85.8926 158.777 99.1186 150.869C105.728 146.921 112.428 143.138 119.219 139.522C121.27 138.43 123.344 137.363 125.443 136.352C130.204 133.954 135.152 131.944 140.237 130.341C147.44 128.015 155.061 127.267 162.581 128.15C169.841 129.204 176.835 131.619 183.196 135.268C196.704 142.804 207.18 154.457 217.375 165.829C218.404 166.984 216.708 168.694 215.67 167.538Z" fill="#B1B1B7"/>
<path d="M492.436 282.138L524.803 270.321L540.874 264.454C546.108 262.544 551.329 260.368 556.74 259C561.442 257.66 566.434 257.723 571.1 259.183C575.261 260.72 579.071 263.077 582.301 266.113C585.601 269.147 588.672 272.42 591.488 275.906C594.987 280.103 598.434 284.344 601.897 288.571C616.188 306.016 630.385 323.537 644.49 341.133C658.593 358.729 672.603 376.4 686.518 394.146C700.467 411.935 714.321 429.798 728.078 447.736C729.763 449.933 731.447 452.132 733.129 454.331C734.059 455.546 736.155 454.348 735.212 453.116C721.353 434.998 707.398 416.954 693.346 398.984C679.259 380.971 665.075 363.035 650.794 345.175C636.513 327.316 622.136 309.533 607.662 291.829C604.056 287.418 600.444 283.012 596.826 278.611C593.774 274.899 590.757 271.146 587.41 267.691C581.265 261.348 573.589 255.743 564.401 255.591C558.998 255.501 553.77 257.212 548.75 259.025C543.339 260.979 537.941 262.969 532.537 264.942L499.943 276.842L491.794 279.816C490.348 280.344 490.973 282.672 492.436 282.138Z" fill="#B1B1B7"/>
<path d="M173.099 148.911C156.651 140.473 135.586 142.126 120.471 152.667C149.302 157.632 177.817 164.275 205.871 172.562C194.221 165.748 185.109 155.072 173.099 148.911Z" fill="#FBFBFE"/>
<path d="M120.31 152.638L117.143 155.208C118.214 154.308 119.328 153.465 120.472 152.667C120.418 152.658 120.364 152.647 120.31 152.638Z" fill="#FBFBFE"/>
<path d="M581.082 282.256C577.896 278.385 574.451 274.331 569.686 272.759L565.236 272.934C599.106 332.672 644.851 384.871 699.661 426.327C660.135 378.303 620.609 330.28 581.082 282.256Z" fill="#FBFBFE"/>
<path d="M304.4 250.321C306.459 257.788 311.098 264.287 317.496 268.669C319.969 270.35 322.895 271.962 323.742 274.827C324.187 276.653 323.912 278.58 322.975 280.211C322.04 281.82 320.902 283.303 319.589 284.624L319.469 285.072C313.331 281.442 307.492 276.849 304.101 270.583C300.711 264.317 300.237 256.104 304.4 250.321Z" fill="#FBFBFE"/>
<path d="M508.755 428.033C510.814 435.5 515.453 441.999 521.851 446.381C524.324 448.062 527.25 449.674 528.097 452.539C528.542 454.366 528.267 456.293 527.33 457.923C526.395 459.533 525.257 461.016 523.944 462.337L523.824 462.785C517.686 459.154 511.847 454.561 508.456 448.295C505.066 442.029 504.592 433.817 508.755 428.033Z" fill="#FBFBFE"/>
<path d="M100.923 415.777C102.982 423.244 107.621 429.743 114.018 434.125C116.492 435.806 119.418 437.418 120.264 440.283C120.709 442.11 120.435 444.037 119.498 445.667C118.562 447.277 117.424 448.76 116.111 450.08L115.992 450.529C109.854 446.898 104.014 442.305 100.624 436.039C97.2333 429.773 96.7599 421.561 100.923 415.777Z" fill="#FBFBFE"/>
<path d="M570.237 89.2938C594.941 89.2938 614.967 69.3047 614.967 44.6469C614.967 19.9891 594.941 0 570.237 0C545.533 0 525.507 19.9891 525.507 44.6469C525.507 69.3047 545.533 89.2938 570.237 89.2938Z" fill="#1D5B96"/>
<path d="M650.957 10.3917C629.279 7.46694 604.53 19.1623 598.912 40.2644C597.496 36.5125 594.921 33.307 591.561 31.111C588.2 28.915 584.227 27.8422 580.215 28.0477C576.204 28.2532 572.362 29.7262 569.244 32.254C566.126 34.7818 563.894 38.2335 562.87 42.1105L565.352 43.8847C611.808 53.9121 659.896 53.6951 706.259 43.2488C691.18 27.4307 672.636 13.3164 650.957 10.3917Z" fill="#B6C2CD"/>
<path d="M557.989 69.921C536.311 66.9962 511.562 78.6916 505.943 99.7937C504.527 96.0418 501.953 92.8363 498.592 90.6403C495.232 88.4443 491.259 87.3715 487.247 87.577C483.236 87.7825 479.393 89.2555 476.275 91.7833C473.158 94.3111 470.926 97.7628 469.902 101.64L472.384 103.414C518.839 113.441 566.928 113.224 613.291 102.778C598.212 86.96 579.667 72.8457 557.989 69.921Z" fill="#B6C2CD"/>
<path d="M747.194 81.1771C747.104 81.1773 747.015 81.1634 746.93 81.136C515.029 7.9342 310.641 17.5066 180.016 38.4272C162.239 41.2732 144.415 44.5603 127.038 48.198C122.602 49.1256 118 50.1198 113.359 51.1551C107.817 52.387 102.349 53.6557 97.1053 54.9244C94.8408 55.4596 92.6204 55.9991 90.4443 56.5428C87.148 57.3549 83.8034 58.2013 80.2181 59.1314C76.2118 60.1624 72.1412 61.2439 68.117 62.3459C68.1022 62.3511 68.0872 62.3554 68.072 62.3587L68.0724 62.3596C63.527 63.5983 59.0055 64.873 54.633 66.146C52.2665 66.8282 49.9814 67.501 47.7926 68.1653C47.548 68.2329 47.3314 68.2978 47.1117 68.3645L46.6414 68.5073C46.3691 68.5902 46.1001 68.6714 45.8312 68.7484L45.8141 68.7535L45.8145 68.7544L45.1027 68.975C44.2539 69.2315 43.4257 69.4819 42.6112 69.7316C21.0838 76.3554 9.2495 81.0677 9.13259 81.1139C9.02568 81.1566 8.91138 81.178 8.79621 81.1766C8.68104 81.1753 8.56726 81.1514 8.46136 81.1062C8.35546 81.061 8.25951 80.9954 8.17901 80.9132C8.0985 80.831 8.03501 80.7337 7.99216 80.627C7.9493 80.5203 7.92794 80.4062 7.92926 80.2912C7.93058 80.1763 7.95457 80.0627 7.99986 79.957C8.04516 79.8513 8.11086 79.7555 8.19323 79.6752C8.27561 79.5948 8.37303 79.5314 8.47993 79.4887C8.59771 79.4425 20.4898 74.7063 42.0956 68.0576C42.9131 67.8072 43.7435 67.5567 44.5948 67.2993L45.256 67.0942C45.2787 67.0856 45.3014 67.0788 45.3246 67.0719C45.5922 66.9959 45.8594 66.9146 46.131 66.8326L46.602 66.6898C46.8367 66.6188 47.068 66.5487 47.3048 66.4838C49.4786 65.8238 51.7715 65.1492 54.144 64.4645C58.5181 63.1906 63.0439 61.916 67.5928 60.6755C67.6069 60.6704 67.6215 60.6669 67.6356 60.6627C71.674 59.5573 75.7596 58.4707 79.7787 57.4362C83.3696 56.5052 86.7206 55.6571 90.0225 54.8433C92.2078 54.3004 94.4325 53.7598 96.6963 53.2215C101.946 51.9511 107.425 50.6807 112.977 49.4462C117.625 48.41 122.235 47.4132 126.679 46.4848C144.082 42.8411 161.934 39.5489 179.738 36.6986C310.551 15.7481 515.231 6.16024 747.458 79.4672C747.658 79.5301 747.828 79.6623 747.939 79.8398C748.049 80.0173 748.093 80.2285 748.061 80.4351C748.029 80.6416 747.924 80.83 747.765 80.9661C747.606 81.1022 747.404 81.1771 747.194 81.1771Z" fill="#B1B1B7"/>
<path d="M231.464 367.54C231.16 366.654 230.649 365.853 229.973 365.203C229.723 364.972 229.453 364.764 229.166 364.581C226.877 363.058 223.456 362.717 221.281 364.581C221.062 364.771 220.859 364.979 220.676 365.203C220.027 366 219.36 366.779 218.676 367.54C217.553 368.819 216.405 370.053 215.203 371.252C214.861 371.585 214.519 371.926 214.168 372.259C213.966 372.46 213.765 372.653 213.563 372.846C212.791 373.581 212.002 374.29 211.204 374.99C210.783 375.367 210.362 375.734 209.932 376.093C209.292 376.627 208.651 377.161 208.002 377.678C207.941 377.722 207.88 377.765 207.818 377.818C207.801 377.827 207.792 377.844 207.774 377.853C207.766 377.853 207.757 377.853 207.748 377.87C207.724 377.88 207.703 377.895 207.687 377.914C207.494 378.046 207.362 378.133 207.266 378.212C207.301 378.194 207.336 378.168 207.371 378.151C207.213 378.273 207.046 378.396 206.888 378.518C205.354 379.648 203.784 380.733 202.179 381.749C198.208 384.285 194.037 386.496 189.707 388.358C189.417 388.472 189.119 388.594 188.821 388.708C177.485 393.344 165.187 395.153 152.993 393.978C151.748 393.882 150.502 393.751 149.257 393.584C147.819 393.374 146.389 393.12 144.968 392.832C139.559 391.754 134.266 390.16 129.163 388.069C122.78 385.152 116.709 381.597 111.043 377.459C110.166 376.837 109.281 376.216 108.395 375.612C109.403 373.143 110.394 370.674 111.359 368.188C111.842 366.989 112.306 365.79 112.763 364.581C116.35 355.276 119.718 345.882 122.945 336.454C126.208 326.903 129.286 317.297 132.181 307.635C132.479 306.654 132.768 305.674 133.049 304.693C134.566 299.59 136.022 294.474 137.417 289.347C137.548 288.848 137.689 288.358 137.811 287.859C138.215 286.388 138.609 284.917 138.995 283.447C139.872 280.129 137.89 276.163 134.4 275.366C132.719 274.936 130.937 275.174 129.428 276.03C127.92 276.886 126.803 278.292 126.313 279.954C125.936 281.372 125.559 282.781 125.173 284.199C123.322 291.054 121.375 297.885 119.332 304.693C119.033 305.674 118.735 306.654 118.437 307.635C113.929 322.465 108.979 337.145 103.588 351.678C102.939 353.437 102.282 355.191 101.615 356.939C101.291 357.797 100.966 358.655 100.633 359.513C99.9925 361.202 99.3347 362.892 98.6769 364.581C98.2998 365.571 97.9139 366.56 97.528 367.54C97.2737 368.162 97.0281 368.784 96.7825 369.396C94.2818 368.5 91.691 367.878 89.0556 367.54L88.6346 367.488C86.5914 367.243 84.5251 367.26 82.4864 367.54C79.4352 367.896 76.4994 368.916 73.8866 370.528C71.2738 372.141 69.0478 374.307 67.3659 376.873C63.1824 383.447 63.235 392.849 69.1025 398.434C75.1454 404.186 84.2932 404.142 91.4061 400.544C95.1755 398.509 98.3538 395.535 100.633 391.912C101.506 390.599 102.308 389.24 103.036 387.842C103.22 387.964 103.404 388.087 103.588 388.218C104.29 388.708 104.992 389.207 105.685 389.698C109.722 392.617 113.976 395.224 118.411 397.498C127.946 402.229 138.21 405.328 148.775 406.663C149.011 406.69 149.239 406.725 149.476 406.751C150.643 406.9 151.818 407.014 152.993 407.11C169.852 408.378 186.732 404.934 201.74 397.165C203.012 396.508 204.272 395.82 205.52 395.099C207.459 393.978 209.353 392.788 211.204 391.527C212.212 390.844 213.195 390.153 214.168 389.426C218.422 386.299 222.388 382.797 226.017 378.965C227.394 377.52 228.713 376.029 229.973 374.491C231.164 373.233 231.851 371.582 231.902 369.852C231.895 369.061 231.747 368.278 231.464 367.54ZM86.2315 388.393C86.4157 388.262 86.5998 388.122 86.7753 387.982C86.7227 388.113 86.4682 388.262 86.2315 388.393ZM89.0468 385.566C88.8451 385.793 88.6609 386.021 88.4592 386.248C87.8455 386.934 87.1862 387.577 86.4858 388.174C86.3893 388.262 86.2841 388.349 86.1789 388.428C86.1777 388.428 86.1765 388.428 86.1755 388.429C86.1744 388.429 86.1734 388.43 86.1726 388.431C86.1718 388.431 86.1711 388.432 86.1707 388.434C86.1703 388.435 86.17 388.436 86.1701 388.437C86.0434 388.493 85.9203 388.558 85.8017 388.63C85.4245 388.857 85.0386 389.067 84.644 389.26C83.8712 389.544 83.0763 389.763 82.2672 389.916C81.6455 389.962 81.0215 389.968 80.399 389.934H80.3815C79.9519 389.839 79.5275 389.722 79.1098 389.584C78.8993 389.479 78.6975 389.356 78.4958 389.234C78.4169 389.164 78.3467 389.093 78.3029 389.05C78.2172 388.972 78.138 388.887 78.0661 388.796C78.0661 388.795 78.0659 388.794 78.0655 388.792C78.065 388.791 78.0644 388.79 78.0636 388.79C78.0628 388.789 78.0618 388.788 78.0607 388.788C78.0596 388.787 78.0585 388.787 78.0573 388.787C77.9608 388.612 77.8556 388.437 77.7591 388.262C77.7541 388.257 77.751 388.251 77.7504 388.244C77.6802 388.025 77.6188 387.798 77.5662 387.57C77.5472 387.171 77.5501 386.77 77.5749 386.371C77.6926 385.812 77.8509 385.262 78.0486 384.725C78.2261 384.345 78.4283 383.976 78.6537 383.622C78.6713 383.587 78.759 383.447 78.8555 383.289C78.8642 383.281 78.8642 383.281 78.8642 383.272C78.9958 383.123 79.1274 382.966 79.2677 382.825C79.5045 382.563 79.7588 382.335 80.0132 382.099C80.5078 381.776 81.0203 381.48 81.548 381.215C82.3853 380.918 83.2445 380.687 84.1178 380.523C85.4056 380.421 86.6999 380.433 87.9857 380.558C89.2034 380.769 90.405 381.064 91.5816 381.442C90.8685 382.824 90.0566 384.152 89.1521 385.417C89.117 385.469 89.0819 385.522 89.0468 385.566ZM79.2939 382.685C79.2167 382.809 79.1255 382.924 79.0221 383.027C79.0916 382.898 79.1837 382.782 79.2939 382.685Z" fill="#363545"/>
<path d="M205.099 278.133C205.02 280.882 204.941 283.631 204.862 286.379C204.695 292.481 204.523 298.586 204.345 304.693C204.16 311.566 203.967 318.435 203.766 325.301C203.669 328.847 203.57 332.392 203.467 335.938C203.196 345.488 202.927 355.036 202.661 364.582C202.634 365.571 202.599 366.551 202.573 367.541C202.441 372.277 202.31 377.013 202.178 381.749C202.029 386.887 201.883 392.026 201.74 397.165C201.634 401.017 201.526 404.872 201.415 408.729C200.626 436.682 199.837 464.634 199.047 492.587C199.014 494.318 198.31 495.969 197.084 497.193C195.857 498.417 194.204 499.119 192.469 499.153C190.729 499.139 189.064 498.442 187.834 497.214C186.603 495.986 185.906 494.324 185.892 492.587C186.33 476.864 186.774 461.141 187.225 445.419C187.619 431.202 188.02 416.985 188.426 402.768C188.558 398.084 188.689 393.398 188.821 388.708C189.023 381.652 189.221 374.596 189.417 367.541C189.444 366.551 189.479 365.571 189.505 364.582C189.523 363.715 189.549 362.857 189.575 361.99C189.961 348.29 190.347 334.586 190.733 320.88C190.891 315.487 191.043 310.092 191.189 304.693C191.364 298.539 191.54 292.388 191.715 286.239C191.794 283.534 191.864 280.838 191.943 278.133C191.977 276.402 192.68 274.751 193.907 273.527C195.133 272.303 196.787 271.6 198.521 271.567C200.261 271.581 201.926 272.277 203.157 273.506C204.387 274.734 205.085 276.396 205.099 278.133Z" fill="#363545"/>
<path d="M565.946 279.955C559.048 306.025 550.804 331.721 541.247 356.941C538.61 363.898 535.912 370.84 533.028 377.699L533.691 376.131C532.404 379.398 530.76 382.513 528.788 385.421C528.654 385.608 528.518 385.794 528.379 385.978C529.061 385.108 529.19 384.936 528.767 385.462C528.545 385.726 528.325 385.99 528.094 386.246C527.48 386.932 526.821 387.576 526.122 388.175C525.945 388.325 525.767 388.473 525.585 388.616L526.408 387.978C526.312 388.203 525.642 388.501 525.433 388.629C524.758 389.036 524.053 389.392 523.324 389.695L524.896 389.033C523.702 389.513 522.457 389.854 521.185 390.05L522.933 389.815C521.684 389.987 520.417 390.001 519.164 389.855L520.913 390.09C519.887 389.949 518.884 389.679 517.926 389.287L519.498 389.949C518.987 389.727 518.494 389.464 518.025 389.164C517.787 389.01 517.056 388.457 518.012 389.186C519.006 389.944 518.14 389.251 517.935 389.05C517.765 388.882 517.611 388.699 517.444 388.529C516.671 387.737 518.318 389.891 517.792 388.965C517.511 388.501 517.254 388.023 517.022 387.532L517.685 389.101C517.383 388.354 517.169 387.575 517.047 386.78L517.282 388.525C517.156 387.535 517.155 386.534 517.279 385.544L517.044 387.29C517.205 386.185 517.498 385.103 517.916 384.068L517.253 385.636C517.545 384.94 517.891 384.267 518.287 383.624C518.469 383.292 518.683 382.978 518.925 382.686C518.969 382.7 517.813 384.011 518.426 383.349C518.587 383.176 518.737 382.994 518.899 382.822C519.159 382.547 519.437 382.296 519.711 382.036C520.627 381.165 518.428 382.882 519.486 382.193C520.252 381.69 521.058 381.251 521.897 380.88L520.326 381.542C521.73 380.966 523.202 380.572 524.707 380.369L522.958 380.604C524.842 380.387 526.746 380.41 528.624 380.671L526.876 380.436C529.254 380.796 531.579 381.449 533.797 382.38L532.226 381.718C536.953 383.743 541.14 386.751 545.319 389.7C549.355 392.617 553.608 395.224 558.041 397.497C567.577 402.229 577.842 405.329 588.407 406.666C603.559 408.518 618.934 406.543 633.122 400.922C647.31 395.3 659.856 386.213 669.61 374.492C670.8 373.232 671.486 371.58 671.537 369.849C671.524 368.111 670.833 366.445 669.61 365.207C667.197 362.996 662.638 362.371 660.308 365.207C658.099 367.898 655.724 370.45 653.198 372.847C652.018 373.964 650.807 375.046 649.564 376.094C648.855 376.693 648.135 377.28 647.406 377.855C647.061 378.127 645.987 378.851 647.637 377.682C647.259 377.95 646.896 378.243 646.523 378.518C640.999 382.582 635.013 385.981 628.69 388.642L630.261 387.98C623.476 390.821 616.35 392.77 609.062 393.778L610.811 393.543C603.313 394.528 595.718 394.516 588.223 393.51L589.972 393.744C582.479 392.717 575.151 390.725 568.171 387.818L569.742 388.479C563.006 385.505 556.614 381.809 550.678 377.457C547.588 375.173 544.33 373.126 540.931 371.334C536.971 369.315 532.684 368.014 528.268 367.492C519.99 366.52 511.554 369.738 507.003 376.877C502.814 383.447 502.869 392.848 508.734 398.435C514.775 404.188 523.923 404.14 531.042 400.541C537.899 397.074 542.017 389.873 544.913 383.083C551.431 367.802 557.201 352.168 562.577 336.455C567.896 320.909 572.719 305.206 577.047 289.345C577.583 287.381 578.111 285.414 578.632 283.446C579.51 280.129 577.526 276.162 574.038 275.369C572.356 274.937 570.573 275.174 569.063 276.03C567.553 276.885 566.436 278.292 565.946 279.955Z" fill="#363545"/>
<path d="M631.579 278.132L629.211 361.993L626.856 445.416L625.524 492.587C625.539 494.324 626.237 495.985 627.467 497.214C628.697 498.442 630.362 499.138 632.102 499.153C633.836 499.12 635.489 498.417 636.716 497.193C637.942 495.969 638.646 494.318 638.68 492.587L641.047 408.727L643.402 325.304L644.734 278.132C644.719 276.396 644.022 274.734 642.791 273.506C641.561 272.278 639.896 271.581 638.156 271.567C636.422 271.6 634.769 272.303 633.542 273.527C632.316 274.751 631.612 276.402 631.579 278.132Z" fill="#363545"/>
<path opacity="0.2" d="M403.896 469.173H405.938V376.341H453.588V374.308H405.938V335.137H442.736C442.197 334.453 441.642 333.776 441.071 333.109H405.938V307.238C405.263 306.95 404.582 306.673 403.896 306.412V333.109H363.856V299.961C363.17 299.992 362.495 300.039 361.814 300.097V333.109H329.871V308.377C329.185 308.68 328.51 308.999 327.839 309.334V333.109H300.987V335.137H327.839V374.308H300.987V376.341H327.839V469.173H329.871V376.341C334.066 376.341 338.22 377.165 342.096 378.767C345.972 380.369 349.494 382.717 352.46 385.678C355.426 388.639 357.779 392.154 359.384 396.023C360.989 399.891 361.815 404.037 361.814 408.225V469.173H363.856V376.341H403.896V469.173ZM329.871 374.308V335.137H361.814V374.308H329.871ZM363.856 374.308V335.137H364.658C369.811 335.138 374.914 336.151 379.674 338.12C384.435 340.088 388.761 342.974 392.404 346.611C396.048 350.249 398.938 354.567 400.91 359.319C402.882 364.071 403.896 369.164 403.896 374.308H363.856Z" fill="#020109"/>
<path d="M391.421 441.339C388.85 452.789 382.69 463.122 373.837 470.841C373.188 471.401 372.539 471.944 371.863 472.478C370.223 472.627 368.595 472.779 366.978 472.933C365.636 473.056 364.312 473.187 362.996 473.31L362.76 473.336L362.593 471.9L361.926 466.088C359.341 461.874 357.738 457.133 357.237 452.217C356.736 447.301 357.349 442.336 359.032 437.689C361.347 431.456 365.54 425.949 369.662 420.486C375.354 412.94 380.888 405.482 381.09 396.281C383.89 399.858 386.219 403.78 388.018 407.95C386.32 408.748 384.795 409.869 383.528 411.251C383.168 411.644 382.809 412.196 383.054 412.669C383.265 413.072 383.791 413.168 384.247 413.22C385.343 413.334 386.448 413.448 387.545 413.562C388.422 413.658 389.299 413.746 390.176 413.842C391.237 417.318 391.956 420.889 392.325 424.505C392.915 430.128 392.611 435.81 391.421 441.339Z" fill="#363545"/>
<path d="M420.54 418.394C415.366 422.15 412.34 427.551 409.989 433.504C407.58 434.274 405.413 435.655 403.701 437.514C403.341 437.907 402.981 438.459 403.227 438.932C403.438 439.334 403.964 439.431 404.42 439.483C405.516 439.597 406.621 439.711 407.718 439.825C405.367 446.863 403.209 454.147 399.052 460.091C396.287 464.015 392.684 467.278 388.501 469.642C387.361 470.29 386.184 470.872 384.975 471.384C380.52 471.725 376.149 472.09 371.863 472.478C370.223 472.627 368.595 472.779 366.978 472.933C365.636 473.056 364.312 473.187 362.996 473.31C362.988 472.828 362.988 472.347 362.996 471.865C363.274 459.039 368.001 446.706 376.371 436.971C376.766 436.516 377.17 436.069 377.582 435.623C381.822 431.102 386.809 427.341 392.325 424.505C401.016 419.994 410.758 417.884 420.54 418.394Z" fill="#1D5B96"/>
<path d="M368.495 468.443L367.487 471.419L366.978 472.933C365.636 473.056 364.312 473.187 362.996 473.31L362.759 473.336C361.303 473.485 359.856 473.634 358.409 473.783C358.032 473.345 357.655 472.898 357.287 472.443C348.132 461.378 343.738 447.146 345.064 432.856C346.39 418.567 353.329 405.383 364.364 396.185C363.207 402.234 364.557 408.029 366.776 413.781C366.539 413.877 366.311 413.973 366.092 414.078C364.394 414.876 362.869 415.997 361.602 417.379C361.242 417.773 360.882 418.324 361.128 418.797C361.339 419.2 361.865 419.296 362.321 419.348C363.417 419.462 364.522 419.576 365.618 419.69C366.496 419.786 367.373 419.874 368.25 419.97C368.662 420.014 369.074 420.057 369.486 420.101C369.548 420.233 369.6 420.355 369.662 420.486C372.161 425.897 374.854 431.333 376.371 436.971C376.751 438.385 377.05 439.82 377.266 441.269C377.941 446.165 377.503 451.15 375.985 455.854C374.467 460.558 371.907 464.861 368.495 468.443Z" fill="#1D5B96"/>
<path d="M456.779 341.471C449.228 326.77 437.531 314.402 423.773 305.312C409.971 296.235 394.134 290.708 377.673 289.222C375.515 289.026 373.352 288.912 371.183 288.878C368.621 288.84 330.079 299.936 317.168 308.997C304.264 317.948 293.648 329.801 286.179 343.6C278.722 357.475 275.054 373.064 275.544 388.802C276.183 404.634 280.604 420.084 288.439 433.865C296.167 447.601 307.139 459.245 320.403 467.785C333.855 476.352 347.368 499.069 363.251 499.87C379.253 500.678 397.504 479.25 412.099 472.743C426.694 466.183 439.312 455.919 448.695 442.974C457.812 430.289 463.711 415.585 465.884 400.124C468.141 384.294 467.089 367.967 461.673 352.837C460.283 348.949 458.649 345.153 456.779 341.471C455.218 338.402 450.643 337.272 447.779 339.115C446.304 340.022 445.235 341.462 444.795 343.135C444.356 344.808 444.579 346.585 445.419 348.098C446.336 349.9 447.188 351.732 447.976 353.594L447.313 352.025C450.295 359.182 452.323 366.699 453.344 374.382L453.109 372.637C454.196 380.973 454.176 389.416 453.051 397.746L453.286 396.001C452.149 404.331 449.921 412.476 446.66 420.228L447.323 418.659C445.646 422.614 443.69 426.446 441.472 430.126C440.347 431.985 439.155 433.801 437.893 435.573C437.339 436.35 436.768 437.114 436.192 437.876C435.441 438.87 437.216 436.578 436.44 437.553C436.308 437.719 436.176 437.885 436.044 438.051C435.645 438.548 435.241 439.041 434.832 439.528C432.097 442.785 429.113 445.824 425.906 448.619C425.108 449.314 424.295 449.995 423.47 450.659C423.059 450.991 422.653 451.336 422.224 451.644C422.24 451.632 423.609 450.594 422.799 451.197C422.544 451.386 422.292 451.578 422.036 451.767C420.335 453.025 418.588 454.219 416.796 455.349C412.671 457.944 408.343 460.202 403.855 462.102L405.426 461.44C397.683 464.693 389.546 466.916 381.222 468.051L382.971 467.816C374.652 468.938 366.22 468.953 357.897 467.861L359.645 468.095C352.081 467.081 344.681 465.085 337.635 462.156L339.207 462.818C335.125 461.098 331.19 459.051 327.44 456.698C325.584 455.53 323.776 454.291 322.017 452.979C321.766 452.792 321.517 452.602 321.267 452.414C320.464 451.809 321.843 452.86 321.854 452.867C321.388 452.533 320.938 452.175 320.508 451.795C319.658 451.105 318.822 450.398 317.999 449.675C314.705 446.78 311.629 443.646 308.795 440.3C308.086 439.463 307.392 438.614 306.713 437.752C306.419 437.379 305.883 436.622 307.068 438.215C306.912 438.005 306.75 437.8 306.593 437.591C306.215 437.091 305.842 436.587 305.474 436.079C304.186 434.3 302.961 432.477 301.801 430.611C299.178 426.386 296.889 421.964 294.955 417.385L295.618 418.953C292.453 411.436 290.289 403.538 289.18 395.459L289.415 397.205C288.415 389.758 288.401 382.212 289.373 374.762L289.138 376.508C290.134 369.293 292.079 362.241 294.922 355.533L294.259 357.101C296.047 352.902 298.157 348.847 300.569 344.971C301.777 343.032 303.057 341.139 304.409 339.294C304.716 338.875 305.026 338.459 305.34 338.044C305.625 337.67 306.406 336.737 305.073 338.384C305.203 338.223 305.329 338.057 305.458 337.894C306.2 336.956 306.96 336.032 307.738 335.123C310.683 331.682 313.873 328.458 317.283 325.475C318.145 324.721 319.021 323.983 319.91 323.261C320.314 322.933 320.72 322.608 321.13 322.287C321.293 322.159 321.459 322.032 321.622 321.903C319.87 323.295 321.136 322.282 321.533 321.984C323.366 320.614 325.247 319.312 327.177 318.079C331.469 315.34 335.983 312.965 340.672 310.981L339.101 311.643C345.907 308.79 376.061 302.057 381.545 302.792L379.797 302.558C387.858 303.681 395.736 305.854 403.232 309.021L401.66 308.359C405.458 309.969 409.15 311.819 412.711 313.9C414.491 314.941 416.235 316.039 417.945 317.193C418.754 317.74 419.555 318.299 420.347 318.87C420.742 319.155 421.136 319.444 421.527 319.735C421.745 319.897 421.96 320.062 422.177 320.224C423.089 320.906 420.922 319.236 421.877 319.991C425.075 322.498 428.112 325.204 430.971 328.091C432.375 329.518 433.73 330.99 435.038 332.508C435.708 333.286 436.365 334.077 437.008 334.878C437.327 335.276 438.415 336.717 437.082 334.952C437.408 335.384 437.737 335.812 438.059 336.247C440.831 339.991 443.292 343.955 445.419 348.098C446.992 351.16 451.547 352.302 454.419 350.454C455.895 349.547 456.964 348.108 457.404 346.435C457.843 344.761 457.619 342.983 456.779 341.471Z" fill="#363545"/>
<path d="M380.132 448.619C379.453 448.65 378.781 448.472 378.207 448.109C377.632 447.746 377.184 447.216 376.922 446.59C376.659 445.964 376.596 445.273 376.741 444.61C376.885 443.947 377.231 443.344 377.73 442.884C377.813 442.552 377.873 442.314 377.957 441.982C377.927 441.91 377.897 441.838 377.867 441.766C374.815 434.502 355.339 454.752 354.497 461.578C354.127 464.596 354.283 467.655 354.96 470.62C348.651 456.884 345.376 441.955 345.354 426.846C345.353 423.054 345.564 419.265 345.987 415.497C346.336 412.408 346.82 409.341 347.44 406.296C350.821 389.774 358.08 374.287 368.622 361.109C374.651 361.445 379.934 360.528 380.444 348.866C380.535 346.792 382.077 344.995 382.416 342.952C381.841 343.027 381.256 343.074 380.68 343.112C380.501 343.121 380.312 343.131 380.133 343.14L380.066 343.143C379.433 343.171 378.806 343.017 378.259 342.697C377.713 342.378 377.27 341.908 376.985 341.344C376.7 340.779 376.585 340.145 376.653 339.516C376.721 338.888 376.969 338.293 377.368 337.802C377.616 337.497 377.865 337.192 378.114 336.887C378.491 336.416 378.878 335.954 379.256 335.483C379.299 335.439 379.34 335.391 379.378 335.342C379.812 334.805 380.246 334.278 380.68 333.741C379.888 332.514 378.823 331.486 377.567 330.737C373.217 328.194 367.216 329.955 364.074 333.882C360.923 337.81 360.328 343.319 361.423 348.226C362.499 352.401 364.28 356.363 366.688 359.941C366.452 360.243 366.207 360.535 365.971 360.836C361.659 366.371 357.9 372.313 354.75 378.579C355.641 371.63 344.741 346.532 340.526 341.216C335.463 334.83 325.08 337.617 324.188 345.711C324.179 345.79 324.171 345.868 324.163 345.947C324.789 346.299 325.402 346.673 326.001 347.069C326.755 347.572 327.338 348.289 327.676 349.129C328.014 349.968 328.09 350.889 327.894 351.772C327.698 352.655 327.239 353.458 326.578 354.077C325.917 354.695 325.084 355.099 324.188 355.237L324.097 355.251C315.716 367.195 342.583 398.283 349.308 391.303C346.143 400.256 344.157 409.583 343.401 419.048C342.974 424.632 342.999 430.241 343.477 435.821L343.449 435.623C341.954 423.47 316.32 405.401 308.834 406.906C304.522 407.773 300.275 407.576 300.929 411.918C300.94 411.987 300.95 412.056 300.961 412.126C302.123 412.598 303.254 413.142 304.348 413.755C304.975 414.107 305.587 414.482 306.187 414.877C306.94 415.38 307.524 416.098 307.862 416.937C308.199 417.776 308.275 418.697 308.079 419.58C307.883 420.463 307.425 421.267 306.764 421.885C306.102 422.503 305.27 422.908 304.374 423.045L304.282 423.06C304.216 423.069 304.16 423.078 304.094 423.088C300.279 436.19 328.57 457.335 345.77 450.607H345.779C347.484 458 349.953 465.196 353.148 472.079H379.473C379.567 471.787 379.652 471.486 379.737 471.194C377.3 471.347 374.854 471.201 372.453 470.761C374.406 468.369 376.359 465.958 378.312 463.566C378.356 463.521 378.397 463.474 378.435 463.424C379.425 462.2 380.426 460.985 381.416 459.761L381.417 459.759C381.47 456.006 381.038 452.262 380.133 448.62L380.132 448.619ZM349.987 389.429L350.001 389.41L349.987 389.447V389.429ZM344.156 441.895L343.93 441.387C343.939 441.019 343.939 440.652 343.93 440.275C343.93 440.172 343.911 440.068 343.911 439.965C343.996 440.614 344.071 441.264 344.166 441.914L344.156 441.895Z" fill="#363545"/>
<path d="M84.3457 393.944C89.6738 393.944 93.9931 389.632 93.9931 384.314C93.9931 378.995 89.6738 374.684 84.3457 374.684C79.0175 374.684 74.6982 378.995 74.6982 384.314C74.6982 389.632 79.0175 393.944 84.3457 393.944Z" fill="#363545"/>
<path d="M200.118 498.995C205.446 498.995 209.765 494.684 209.765 489.365C209.765 484.047 205.446 479.736 200.118 479.736C194.79 479.736 190.47 484.047 190.47 489.365C190.47 494.684 194.79 498.995 200.118 498.995Z" fill="#363545"/>
<path d="M639.524 498.995C644.852 498.995 649.171 494.684 649.171 489.365C649.171 484.047 644.852 479.736 639.524 479.736C634.196 479.736 629.876 484.047 629.876 489.365C629.876 494.684 634.196 498.995 639.524 498.995Z" fill="#363545"/>
<path d="M663.205 376.435C668.533 376.435 672.853 372.123 672.853 366.805C672.853 361.487 668.533 357.175 663.205 357.175C657.877 357.175 653.558 361.487 653.558 366.805C653.558 372.123 657.877 376.435 663.205 376.435Z" fill="#363545"/>
<path d="M635.139 287.141C640.467 287.141 644.786 282.83 644.786 277.511C644.786 272.193 640.467 267.882 635.139 267.882C629.811 267.882 625.491 272.193 625.491 277.511C625.491 282.83 629.811 287.141 635.139 287.141Z" fill="#363545"/>
<path d="M232.569 366.805C232.563 369.265 231.61 371.628 229.907 373.406C228.204 375.184 225.881 376.241 223.42 376.357C220.958 376.473 218.546 375.64 216.683 374.031C214.819 372.421 213.647 370.158 213.408 367.71C213.17 365.262 213.884 362.816 215.402 360.878C216.92 358.94 219.126 357.659 221.564 357.3C224.002 356.941 226.485 357.531 228.499 358.948C230.513 360.366 231.904 362.502 232.385 364.914C232.508 365.537 232.57 366.17 232.569 366.805Z" fill="#363545"/>
<path d="M425.522 315.155C430.85 315.155 435.169 310.843 435.169 305.525C435.169 300.207 430.85 295.895 425.522 295.895C420.194 295.895 415.875 300.207 415.875 305.525C415.875 310.843 420.194 315.155 425.522 315.155Z" fill="#363545"/>
<path d="M329.922 305.525C329.916 307.985 328.963 310.348 327.26 312.126C325.557 313.904 323.235 314.96 320.773 315.077C318.311 315.193 315.899 314.36 314.036 312.751C312.172 311.141 311 308.878 310.761 306.43C310.523 303.982 311.237 301.536 312.755 299.598C314.273 297.66 316.479 296.379 318.917 296.02C321.355 295.661 323.838 296.251 325.852 297.668C327.866 299.085 329.257 301.221 329.738 303.634C329.861 304.257 329.923 304.89 329.922 305.525Z" fill="#363545"/>
<path d="M205.38 277.511C205.374 279.971 204.421 282.334 202.718 284.112C201.015 285.89 198.693 286.947 196.231 287.063C193.769 287.179 191.357 286.347 189.494 284.737C187.63 283.127 186.458 280.864 186.219 278.416C185.981 275.968 186.695 273.522 188.213 271.584C189.731 269.647 191.937 268.366 194.375 268.006C196.813 267.647 199.296 268.237 201.31 269.654C203.324 271.072 204.715 273.208 205.196 275.62C205.319 276.243 205.381 276.876 205.38 277.511Z" fill="#363545"/>
<path d="M526.383 397.445C531.711 397.445 536.031 393.134 536.031 387.816C536.031 382.497 531.711 378.186 526.383 378.186C521.055 378.186 516.736 382.497 516.736 387.816C516.736 393.134 521.055 397.445 526.383 397.445Z" fill="#363545"/>
<path d="M374.652 309.902C382.402 309.902 388.685 303.631 388.685 295.895C388.685 288.16 382.402 281.888 374.652 281.888C366.902 281.888 360.62 288.16 360.62 295.895C360.62 303.631 366.902 309.902 374.652 309.902Z" fill="#363545"/>
<path d="M754.149 499.731L1.85142 500.001C1.71428 500.001 1.57848 499.974 1.45178 499.921C1.32508 499.869 1.20997 499.792 1.11299 499.695C1.01602 499.598 0.939091 499.483 0.88661 499.357C0.834129 499.23 0.807129 499.095 0.807129 498.958C0.807129 498.821 0.834129 498.685 0.88661 498.559C0.939091 498.432 1.01602 498.318 1.11299 498.221C1.20997 498.124 1.32508 498.047 1.45178 497.995C1.57848 497.942 1.71428 497.915 1.85142 497.915L754.149 497.646C754.425 497.647 754.69 497.757 754.885 497.953C755.081 498.148 755.19 498.413 755.19 498.689C755.19 498.965 755.081 499.23 754.885 499.425C754.69 499.62 754.425 499.731 754.149 499.731Z" fill="#B1B1B7"/>
</g>
<defs>
<clipPath id="clip0_404_1070">
<rect width="754.386" height="500" fill="white" transform="translate(0.807129)"/>
</clipPath>
</defs>
</svg>
