

<svg width="1440" height="944" viewBox="0 0 1440 944" fill="none" xmlns="http://www.w3.org/2000/svg">
<path d="M351.247 420.713C346.748 378.145 340.381 340.74 364.759 293.688C380.791 262.745 419.945 224.294 453.013 213.442C529.207 188.438 617.247 203.959 669.957 264.496C690.687 288.304 718.27 333.909 743.366 353.036C773.177 375.754 812.98 379.973 850.425 379.256C887.871 378.541 925.844 373.787 962.434 381.793C1013.27 392.915 1057.78 429.831 1078.2 477.791C1098.61 525.751 1094.38 583.494 1067.2 627.956C1053.41 642.688 1038.23 656.08 1021.62 667.526C933.329 728.384 823.849 747.472 714.8 743.498C620.896 740.075 520.915 720.428 454.725 653.593C392.978 591.245 360.479 508.065 351.247 420.713Z" fill="#B9CCDE"/>
<path d="M1278.77 684.413C1278.77 684.413 1270.61 680.1 1263.07 699.342C1255.53 718.584 1253.03 729.5 1253.03 729.5C1253.03 729.5 1250.94 733.582 1248.06 731.331C1245.17 729.08 1240.86 722.316 1236.5 724.038C1231.98 725.824 1230.96 731.163 1232.6 738.701C1234.23 746.239 1237.21 762.884 1237.47 764.39C1237.73 765.869 1237.1 768.147 1234.89 766.929C1232.68 765.711 1219.46 753.615 1214.1 760.229C1208.73 766.843 1216.74 787.093 1217.57 789.323C1218.4 791.553 1218.05 792.576 1217.02 793.249C1215.99 793.923 1211.93 789.438 1208.03 786.152C1204.13 782.866 1199.03 779.739 1196.26 783.814C1193.48 787.889 1194.01 803.621 1211.38 827.553L1220.16 838.115L1233.79 836.008C1262.69 829.722 1273.56 818.338 1274.2 813.45C1274.85 808.562 1268.96 807.5 1263.86 807.355C1258.77 807.21 1252.75 807.853 1252.43 806.663C1252.11 805.473 1252.53 804.476 1254.63 803.367C1256.74 802.258 1276.2 792.482 1276.6 783.975C1277 775.469 1259.09 775.693 1256.63 775.13C1254.17 774.567 1255.21 772.443 1256.39 771.512C1257.59 770.564 1270.89 760.128 1277.13 755.594C1283.37 751.06 1286.16 746.396 1283.98 742.055C1281.88 737.869 1274.16 740.045 1270.51 739.803C1266.86 739.561 1268.02 735.123 1268.02 735.123C1268.02 735.123 1273.42 725.314 1280.61 705.938C1287.8 686.562 1278.6 684.336 1278.6 684.336" fill="#EBEBEB"/>
<path d="M1220.49 835.143C1225.83 820.934 1233.36 801.365 1241.76 779.775C1250.15 758.192 1257.73 738.645 1263.14 724.464C1265.83 717.383 1268.01 711.647 1269.52 707.663C1270.27 705.693 1270.86 704.157 1271.26 703.096C1271.46 702.588 1271.61 702.194 1271.73 701.912C1271.83 701.646 1271.9 701.514 1271.9 701.514C1271.9 701.514 1271.86 701.657 1271.77 701.928C1271.67 702.214 1271.52 702.613 1271.34 703.127C1270.96 704.195 1270.4 705.74 1269.68 707.722C1268.23 711.711 1266.09 717.468 1263.42 724.572C1258.08 738.781 1250.55 758.348 1242.16 779.93C1233.76 801.52 1226.18 821.069 1220.78 835.25" fill="#92A4B5"/>
<path d="M1242.06 733.624C1242.09 733.613 1242.24 733.932 1242.5 734.517C1242.75 735.101 1243.1 735.957 1243.52 737.018C1244.35 739.142 1245.43 742.105 1246.56 745.396C1247.66 748.646 1248.66 751.584 1249.42 753.832C1249.77 754.843 1250.06 755.696 1250.3 756.382C1250.51 756.983 1250.61 757.321 1250.59 757.332C1250.56 757.343 1250.4 757.026 1250.15 756.442C1249.89 755.857 1249.54 755.001 1249.13 753.935C1248.32 751.802 1247.28 748.826 1246.16 745.535C1245.03 742.295 1244.01 739.365 1243.24 737.123C1242.88 736.113 1242.58 735.261 1242.34 734.576C1242.13 733.974 1242.03 733.635 1242.06 733.624Z" fill="#92A4B5"/>
<path d="M1251.87 757.452C1251.82 757.343 1257.83 754.854 1265.29 751.895C1272.75 748.935 1278.83 746.624 1278.87 746.734C1278.92 746.844 1272.91 749.331 1265.45 752.292C1257.99 755.251 1251.91 757.562 1251.87 757.452Z" fill="#92A4B5"/>
<path d="M1237.48 790.02C1237.48 789.991 1237.84 789.94 1238.49 789.875C1239.22 789.805 1240.14 789.718 1241.23 789.615C1243.55 789.392 1246.74 789.071 1250.26 788.588C1253.77 788.112 1256.94 787.571 1259.23 787.161C1260.31 786.969 1261.22 786.807 1261.94 786.678C1262.58 786.567 1262.94 786.519 1262.95 786.548C1262.95 786.577 1262.61 786.679 1261.98 786.84C1261.35 787 1260.43 787.216 1259.29 787.457C1257.01 787.944 1253.84 788.534 1250.31 789.011C1246.79 789.496 1243.58 789.77 1241.25 789.916C1240.09 789.984 1239.15 790.029 1238.5 790.041C1237.85 790.055 1237.48 790.05 1237.48 790.02Z" fill="#92A4B5"/>
<path d="M1223.87 770.42C1223.89 770.403 1224.11 770.657 1224.48 771.132C1224.9 771.685 1225.41 772.365 1226.02 773.166C1227.3 774.894 1229.04 777.299 1230.95 779.97C1232.86 782.642 1234.56 785.075 1235.78 786.848C1236.34 787.68 1236.82 788.386 1237.2 788.961C1237.53 789.465 1237.7 789.752 1237.68 789.77C1237.66 789.787 1237.44 789.533 1237.07 789.058C1236.65 788.505 1236.14 787.825 1235.53 787.024C1234.25 785.296 1232.51 782.891 1230.6 780.219C1228.7 777.548 1226.99 775.115 1225.77 773.342C1225.21 772.51 1224.73 771.804 1224.35 771.229C1224.02 770.724 1223.85 770.437 1223.87 770.42Z" fill="#92A4B5"/>
<path d="M1207.52 797.558C1207.54 797.541 1207.82 797.869 1208.29 798.477C1208.81 799.154 1209.47 800.028 1210.27 801.076C1211.92 803.282 1214.18 806.346 1216.66 809.746C1219.14 813.147 1221.36 816.24 1222.95 818.491C1223.7 819.572 1224.33 820.472 1224.82 821.17C1225.25 821.808 1225.48 822.169 1225.45 822.187C1225.43 822.204 1225.16 821.876 1224.68 821.268C1224.17 820.591 1223.5 819.717 1222.71 818.669C1221.05 816.463 1218.79 813.398 1216.31 809.997C1213.84 806.597 1211.62 803.504 1210.02 801.253C1209.27 800.172 1208.64 799.272 1208.16 798.574C1207.72 797.936 1207.5 797.575 1207.52 797.558Z" fill="#92A4B5"/>
<path d="M1225.19 821.478C1225.19 821.449 1225.64 821.373 1226.46 821.262C1227.35 821.145 1228.52 820.992 1229.92 820.807C1232.85 820.42 1236.89 819.87 1241.33 819.136C1245.78 818.409 1249.78 817.645 1252.68 817.072C1254.07 816.798 1255.22 816.57 1256.11 816.396C1256.92 816.239 1257.37 816.166 1257.38 816.195C1257.38 816.224 1256.94 816.351 1256.14 816.558C1255.34 816.764 1254.18 817.045 1252.74 817.368C1249.86 818.017 1245.85 818.83 1241.4 819.558C1236.95 820.293 1232.9 820.797 1229.96 821.108C1228.49 821.26 1227.3 821.37 1226.47 821.429C1225.65 821.487 1225.19 821.507 1225.19 821.478Z" fill="#92A4B5"/>
<path d="M544.883 835.661C570.11 823.413 579.946 794.792 583.26 768.184C583.814 763.743 585.04 759.163 583.556 754.952C582.07 750.742 577.589 747.313 573.338 748.545C569.812 749.567 567.775 753.156 565.437 756.019C562.327 759.83 558.136 762.725 553.502 764.266C550.457 765.278 546.834 765.617 544.301 763.643C540.825 760.934 541.214 755.599 541.94 751.208C543.295 743.027 544.649 734.846 546.003 726.667C546.73 722.278 547.456 717.794 546.754 713.407C546.051 709.02 543.648 704.665 539.656 702.829C535.662 700.993 530.11 702.58 528.543 706.74C527.891 708.471 527.96 710.387 527.548 712.191C527.136 713.996 525.965 715.879 524.152 716.111C522.316 716.347 520.756 714.822 519.648 713.327C515.819 708.169 513.651 701.965 511.68 695.824C509.708 689.683 507.843 683.421 504.498 677.927C501.153 672.433 496.072 667.694 489.837 666.336C483.6 664.978 476.279 667.795 473.706 673.719C471.126 679.659 473.739 686.519 476.874 692.158C481.524 700.526 487.379 708.203 494.196 714.872C495.425 716.075 496.757 717.376 497.027 719.088C497.515 722.169 494.277 724.636 491.232 725.139C487.783 725.709 484.284 724.803 480.794 724.661C477.304 724.519 473.352 725.44 471.541 728.471C469.027 732.675 472.033 737.98 475.238 741.651C481.655 749.003 489.329 755.224 497.818 759.961C500.862 761.658 504.098 763.237 506.343 765.922C508.588 768.609 509.532 772.807 507.465 775.651C505.396 778.499 501.197 778.846 497.912 777.678C494.628 776.513 491.889 774.192 488.857 772.461C483.182 769.221 475.319 768.396 470.62 772.999C467.532 776.025 466.548 780.765 467.184 785.059C467.818 789.352 469.865 793.289 472.116 796.977C479.986 809.871 490.92 820.983 504.154 828.069C517.384 835.156 530.153 838.536 544.883 835.661Z" fill="#EBEBEB"/>
<path d="M541.306 837.071C542.016 826.435 542.489 831.953 540.692 817.983C538.922 804.008 535.713 788.849 531.81 773.11C530.82 769.179 529.841 765.295 528.878 761.467C527.907 757.648 526.944 753.86 525.773 750.215C523.463 742.911 520.685 736.065 517.845 729.649C515.007 723.229 512.08 717.24 509.302 711.661C506.511 706.085 503.811 700.937 501.151 696.35C495.858 687.151 490.72 680.252 486.999 675.66C485.144 673.356 483.646 671.617 482.614 670.451C482.117 669.896 481.727 669.461 481.433 669.133C481.163 668.84 481.02 668.694 481.01 668.704C480.998 668.713 481.121 668.878 481.37 669.189C481.648 669.53 482.019 669.983 482.49 670.56C483.479 671.76 484.937 673.531 486.752 675.862C490.39 680.51 495.437 687.438 500.651 696.646C503.272 701.238 505.936 706.39 508.695 711.971C511.444 717.56 514.345 723.55 517.158 729.962C519.971 736.371 522.722 743.198 525.009 750.465C526.168 754.093 527.118 757.848 528.089 761.677C529.052 765.503 530.027 769.386 531.016 773.314C534.914 789.041 538.138 804.157 539.945 818.086C541.776 832.007 541.362 826.434 540.728 837.037" fill="#92A4B5"/>
<path d="M525.547 750.147C525.6 750.164 525.856 749.521 526.274 748.341C526.698 747.164 527.255 745.441 527.912 743.301C529.229 739.025 530.847 733.059 532.606 726.474C534.365 719.885 536.063 713.959 537.442 709.715C538.126 707.591 538.696 705.878 539.106 704.698C539.509 703.516 539.707 702.851 539.655 702.83C539.602 702.809 539.304 703.433 538.809 704.584C538.307 705.73 537.651 707.42 536.897 709.527C535.372 713.738 533.578 719.664 531.818 726.259C530.099 732.762 528.544 738.645 527.357 743.139C526.808 745.166 526.343 746.874 525.971 748.245C525.647 749.452 525.492 750.13 525.547 750.147Z" fill="#92A4B5"/>
<path d="M470.739 730.6C470.729 730.656 471.518 730.877 472.949 731.229C474.378 731.589 476.448 732.098 478.985 732.809C484.07 734.191 491.027 736.346 498.599 739.059C506.168 741.787 512.913 744.546 517.734 746.684C520.153 747.736 522.087 748.639 523.428 749.256C524.767 749.878 525.519 750.198 525.546 750.148C525.572 750.096 524.867 749.679 523.569 748.967C522.269 748.261 520.367 747.274 517.972 746.15C513.199 743.87 506.465 741.015 498.874 738.278C491.28 735.558 484.269 733.483 479.131 732.243C476.566 731.602 474.47 731.178 473.015 730.915C471.56 730.659 470.751 730.543 470.739 730.6Z" fill="#92A4B5"/>
<path d="M540.163 816.834C540.187 816.85 540.357 816.634 540.66 816.207C541.009 815.696 541.435 815.072 541.951 814.317C543.065 812.671 544.615 810.247 546.49 807.227C550.245 801.19 555.17 792.687 560.477 783.231C565.788 773.771 570.626 765.234 574.25 759.127C576.022 756.16 577.48 753.72 578.563 751.906C579.028 751.118 579.411 750.468 579.726 749.934C579.984 749.479 580.108 749.233 580.084 749.215C580.06 749.201 579.89 749.417 579.587 749.844C579.238 750.355 578.812 750.977 578.296 751.732C577.182 753.378 575.632 755.802 573.756 758.822C570.001 764.859 565.076 773.362 559.767 782.822C554.458 792.279 549.619 800.815 545.996 806.923C544.223 809.888 542.766 812.33 541.683 814.143C541.218 814.931 540.834 815.583 540.52 816.115C540.263 816.572 540.139 816.818 540.163 816.834Z" fill="#92A4B5"/>
<path d="M468.95 780.695C468.938 780.721 469.179 780.867 469.646 781.121C470.202 781.411 470.884 781.767 471.71 782.198C473.619 783.172 476.197 784.485 479.334 786.082C485.77 789.364 494.608 793.997 504.367 799.131C514.128 804.268 523.018 808.824 529.524 811.973C532.777 813.549 535.421 814.796 537.266 815.621C538.12 815.997 538.824 816.306 539.396 816.559C539.887 816.765 540.152 816.86 540.163 816.834C540.175 816.808 539.934 816.662 539.467 816.407C538.913 816.119 538.231 815.763 537.403 815.331C535.494 814.357 532.917 813.046 529.781 811.447C523.344 808.167 514.505 803.532 504.744 798.396C494.986 793.262 486.097 788.705 479.591 785.557C476.338 783.981 473.694 782.734 471.848 781.908C470.994 781.533 470.291 781.222 469.718 780.97C469.226 780.764 468.963 780.67 468.95 780.695Z" fill="#92A4B5"/>
<path d="M936 229.347H1159C1159 229.347 1139.28 193.462 1081.88 198.685C1027.06 203.674 1024.27 181.031 996.396 178.244C968.521 175.456 945.292 196.827 936 229.347Z" fill="#A7CBE9"/>
<path d="M986 375.637H1093C1093 375.637 1083.54 358.419 1056 360.925C1029.69 363.318 1028.35 352.454 1014.98 351.117C1001.6 349.78 990.458 360.034 986 375.637Z" fill="#C3DBF0"/>
<path d="M226 248H442C442 248 422.899 203.273 367.3 209.783C314.2 216.001 311.5 187.78 284.499 184.304C257.501 180.83 235.001 207.467 226 248Z" fill="#B6C2CD"/>
<path d="M566.631 705.084C566.631 705.084 574.187 705.417 571.541 722.147C568.894 738.877 566.137 747.631 566.137 747.631C566.137 747.631 565.923 751.384 568.895 750.988C571.867 750.592 577.719 747.597 580.086 750.621C582.54 753.757 581.049 757.955 576.768 762.606C572.487 767.257 563.482 777.792 562.671 778.747C561.875 779.685 561.381 781.56 563.449 781.615C565.517 781.67 579.874 778.596 580.925 785.496C581.976 792.396 567.92 803.394 566.407 804.626C564.894 805.858 564.719 806.726 565.169 807.63C565.619 808.534 570.348 807.046 574.467 806.339C578.586 805.632 583.487 805.534 583.759 809.566C584.031 813.598 577.136 824.501 554.932 834.219L544.349 838.049L535.585 830.909C517.761 814.486 514.795 801.93 516.366 798.207C517.938 794.484 522.539 796.173 526.203 798.184C529.867 800.195 533.852 803.142 534.573 802.434C535.294 801.726 535.411 800.848 534.382 799.19C533.353 797.532 523.649 782.555 526.891 776.374C530.133 770.193 542.705 777.778 544.678 778.4C546.651 779.022 546.795 777.088 546.348 775.942C545.893 774.774 540.812 761.88 538.281 756.088C535.75 750.296 535.708 745.841 539.05 743.676C542.273 741.589 546.83 746.328 549.511 747.67C552.192 749.012 553.213 745.395 553.213 745.395C553.213 745.395 553.459 736.22 556.409 719.541C559.359 702.862 566.783 705.1 566.783 705.1" fill="#1D5B96"/>
<path d="M564.286 720.071C564.293 720.072 564.283 720.177 564.254 720.379C564.22 720.603 564.175 720.899 564.117 721.275C563.983 722.087 563.793 723.241 563.55 724.715C563.042 727.726 562.313 732.038 561.415 737.357C559.65 748.06 557.219 762.806 554.533 779.093C551.877 795.402 549.404 810.155 547.524 820.818C546.568 826.127 545.793 830.432 545.252 833.437C544.975 834.905 544.757 836.054 544.604 836.862C544.529 837.235 544.469 837.529 544.425 837.751C544.382 837.951 544.357 838.053 544.349 838.051C544.341 838.05 544.353 837.945 544.381 837.743C544.415 837.519 544.46 837.223 544.518 836.847C544.652 836.035 544.842 834.881 545.085 833.407C545.593 830.397 546.322 826.084 547.22 820.766C549.022 810.091 551.447 795.332 554.103 779.023C556.758 762.72 559.231 747.968 561.111 737.305C562.067 731.996 562.842 727.691 563.383 724.686C563.661 723.218 563.878 722.069 564.031 721.26C564.106 720.887 564.166 720.593 564.21 720.371C564.253 720.171 564.279 720.07 564.286 720.071Z" fill="#263238"/>
<path d="M572.068 755.141C572.107 755.191 571.228 755.942 569.805 757.151C568.298 758.442 566.382 760.083 564.263 761.898C562.101 763.757 560.13 765.427 558.666 766.592C557.933 767.174 557.329 767.632 556.902 767.935C556.473 768.236 556.228 768.392 556.21 768.368C556.172 768.318 557.06 767.58 558.468 766.355C559.967 765.053 561.871 763.398 563.978 761.567C566.141 759.708 568.134 758.063 569.609 756.912C570.348 756.338 570.951 755.881 571.378 755.578C571.805 755.275 572.049 755.118 572.068 755.141Z" fill="#263238"/>
<path d="M555.257 767.923C555.162 767.997 551.805 763.854 547.76 758.67C543.713 753.484 540.511 749.222 540.606 749.148C540.701 749.074 544.057 753.216 548.104 758.401C552.149 763.586 555.352 767.849 555.257 767.923Z" fill="#263238"/>
<path d="M551.925 796.912C551.908 796.937 551.648 796.796 551.19 796.52C550.731 796.246 550.081 795.827 549.284 795.3C547.696 794.239 545.536 792.717 543.245 790.913C540.949 789.113 538.956 787.378 537.552 786.084C536.848 785.438 536.292 784.901 535.915 784.522C535.539 784.143 535.34 783.923 535.361 783.9C535.404 783.854 536.303 784.619 537.756 785.852C539.21 787.085 541.227 788.776 543.515 790.569C545.798 792.367 547.921 793.922 549.461 795.046C551.003 796.166 551.96 796.859 551.925 796.912Z" fill="#263238"/>
<path d="M569.675 788.697C569.7 788.752 568.727 789.247 567.134 790.003C565.541 790.759 563.328 791.776 560.873 792.874C558.417 793.973 556.184 794.945 554.559 795.629C552.934 796.313 551.916 796.708 551.892 796.653C551.867 796.598 552.84 796.103 554.433 795.347C556.026 794.591 558.239 793.574 560.695 792.476C563.15 791.378 565.383 790.406 567.008 789.722C568.632 789.038 569.65 788.642 569.675 788.697Z" fill="#263238"/>
<path d="M569.984 814.663C569.996 814.691 569.687 814.857 569.118 815.133C568.462 815.44 567.651 815.818 566.693 816.266C564.638 817.205 561.786 818.475 558.626 819.852C555.465 821.23 552.594 822.455 550.507 823.322C549.527 823.719 548.698 824.055 548.027 824.327C547.437 824.556 547.106 824.669 547.094 824.641C547.082 824.613 547.391 824.447 547.959 824.171C548.615 823.864 549.426 823.486 550.384 823.038C552.439 822.099 555.291 820.829 558.452 819.451C561.612 818.073 564.483 816.849 566.57 815.982C567.55 815.585 568.379 815.249 569.051 814.976C569.64 814.748 569.972 814.635 569.984 814.663Z" fill="#263238"/>
<path d="M547.574 824.248C547.556 824.272 547.238 824.074 546.677 823.693C546.115 823.314 545.316 822.746 544.338 822.033C542.384 820.601 539.724 818.568 536.882 816.203C534.036 813.842 531.545 811.604 529.781 809.944C528.898 809.115 528.195 808.432 527.719 807.95C527.242 807.469 526.989 807.192 527.009 807.17C527.03 807.148 527.323 807.383 527.835 807.826C528.411 808.331 529.132 808.964 529.989 809.716C531.803 811.315 534.321 813.512 537.161 815.868C539.997 818.227 542.621 820.295 544.524 821.787C545.421 822.491 546.175 823.084 546.778 823.557C547.307 823.979 547.592 824.224 547.574 824.248Z" fill="#263238"/>
<path d="M190.7 810.623C193.568 808.951 197.042 808.623 200.362 809.061C202.146 809.297 204.019 809.773 205.302 811.09C206.585 812.406 206.955 814.792 205.645 816.009C204.865 816.734 203.726 816.881 202.66 816.907C200.085 816.969 197.202 816.606 195.241 818.267C194.122 819.215 193.431 820.748 192.056 821.243C190.71 821.728 189.112 820.953 188.309 819.711C187.506 818.467 187.387 816.882 187.641 815.439C187.641 815.439 187.811 812.307 190.7 810.623Z" fill="#1D5B96"/>
<path d="M183.586 797.843C185.516 800.402 188.919 799.407 190.428 797.748C191.936 796.088 192.478 793.743 192.965 791.508C194.079 786.4 195.189 781.043 193.843 775.932C193.441 774.404 192.794 772.889 191.68 771.784C190.567 770.68 188.918 770.059 187.47 770.514C185.756 771.053 184.776 772.855 184.091 774.56C182.078 779.574 181.178 785.083 181.478 790.557C181.62 793.113 182.068 795.783 183.586 797.843Z" fill="#1D5B96"/>
<path d="M178.425 801.997C180.237 799.55 180.401 796.068 179.354 793.12C178.308 790.173 176.192 787.708 173.805 785.72C171.007 783.389 167.774 781.613 164.348 780.524C163.001 780.095 161.586 779.77 160.201 779.956C158.816 780.142 157.457 780.922 156.883 782.217C156.034 784.13 157.092 786.376 158.199 788.2C160.149 791.412 162.343 794.474 164.752 797.347C166.691 799.658 168.888 801.928 171.691 802.903C174.493 803.879 177.33 803.65 178.665 801.651" fill="#1D5B96"/>
<path d="M185.33 837.229C185.363 837.23 185.391 836.803 185.416 836.029C185.444 835.158 185.479 834.062 185.52 832.76C185.581 831.384 185.673 829.746 185.93 827.956C186.187 826.171 186.64 824.23 187.255 822.256C187.896 820.293 188.716 818.5 189.715 817.055C190.704 815.604 191.894 814.537 193.037 813.904C194.173 813.261 195.211 812.98 195.933 812.846C196.662 812.741 197.069 812.668 197.068 812.633C197.066 812.599 196.654 812.609 195.902 812.655C195.158 812.734 194.074 812.968 192.872 813.596C191.666 814.21 190.401 815.296 189.36 816.779C188.31 818.257 187.458 820.089 186.806 822.087C186.18 824.096 185.736 826.056 185.498 827.878C185.261 829.698 185.205 831.353 185.186 832.74C185.172 834.127 185.203 835.249 185.233 836.023C185.262 836.799 185.297 837.228 185.33 837.229Z" fill="#263238"/>
<path d="M185.406 834.729C185.422 834.728 185.421 834.537 185.407 834.177C185.385 833.763 185.356 833.241 185.321 832.601C185.246 831.233 185.143 829.254 185.084 826.808C184.941 821.915 185.06 816.639 185.433 809.192C185.789 802.19 186.332 794.037 187.076 788.72C187.233 787.512 187.396 786.423 187.555 785.469C187.703 784.513 187.829 783.69 187.958 783.022C188.065 782.395 188.152 781.883 188.222 781.477C188.278 781.122 188.3 780.934 188.283 780.929C188.268 780.925 188.216 781.105 188.132 781.453C188.04 781.855 187.924 782.359 187.782 782.98C187.626 783.642 187.474 784.462 187.301 785.415C187.119 786.366 186.932 787.452 186.755 788.659C185.995 793.481 185.275 800.204 184.896 807.669C184.522 815.131 184.532 821.911 184.758 826.813C184.859 829.264 185.012 831.246 185.141 832.612C185.211 833.251 185.269 833.77 185.314 834.184C185.36 834.543 185.391 834.731 185.406 834.729Z" fill="#263238"/>
<path d="M184.473 821.876C184.506 821.873 184.464 821.286 184.361 820.223C184.238 819.163 184.004 817.632 183.602 815.762C183.182 813.896 182.621 811.683 181.803 809.286C181.446 808.19 180.602 805.562 178.711 801.657C176.209 796.364 172.987 792.078 170.251 789.451C169.604 788.75 168.901 788.254 168.333 787.762C168.04 787.528 167.78 787.293 167.518 787.108C167.255 786.936 167.011 786.777 166.785 786.629C165.902 786.056 165.409 785.755 165.393 785.785C165.324 785.895 167.368 787.033 170.024 789.7C172.67 792.362 175.808 796.62 178.29 801.869C179.669 804.714 180.665 807.26 181.393 809.426C182.228 811.8 182.819 813.989 183.277 815.834C183.719 817.685 184.002 819.198 184.181 820.247C184.337 821.296 184.441 821.878 184.473 821.876Z" fill="#263238"/>
<path d="M1003.42 790.903L1001.89 784.817L1004.03 782.664L1010.43 784.202L1018.12 795.382L1016.19 797.707L1003.42 790.903Z" fill="#B6C2CD"/>
<path d="M1064.26 836.931L1000.72 779.672C1000.07 779.081 999.039 779.137 998.47 779.797C997.944 780.407 998.007 781.314 998.614 781.861L1060.44 837.601H1064.26" fill="#B6C2CD"/>
<path d="M1059.76 744.247L1062.4 736.546L1066.25 735.716L1072.13 741.911L1072.59 759.508L1068.85 760.677L1059.76 744.247Z" fill="#7CB1DE"/>
<path d="M1093.46 837.336L1064.76 730.119C1064.47 729.012 1063.31 728.347 1062.22 728.663C1061.22 728.955 1060.64 729.987 1060.92 731.011L1089.38 837.465" fill="#263238"/>
<path d="M1139.71 763.571L1123 837.361H1133.08L1150.08 766.24L1139.71 763.571Z" fill="#263238"/>
<path d="M1180.59 767.912C1180.59 768.674 1195.84 837.361 1195.84 837.361H1205.31L1188.22 763.571L1180.59 767.912Z" fill="#263238"/>
<path d="M1210.31 750.137C1210.57 750.899 1251.06 837.361 1251.06 837.361H1261.54L1216.35 744.297L1210.31 750.137Z" fill="#263238"/>
<path d="M1227.56 748.444C1247.3 716.828 1241.36 677.498 1214.3 660.599C1187.23 643.699 1149.29 655.63 1129.55 687.247C1109.81 718.863 1115.75 758.193 1142.81 775.092C1169.88 791.991 1207.82 780.061 1227.56 748.444Z" fill="#263238"/>
<path d="M1222.18 743.808C1240.86 712.777 1235.19 675.095 1209.52 659.643C1183.85 644.191 1147.89 656.82 1129.22 687.852C1110.54 718.883 1116.21 756.565 1141.88 772.017C1167.55 787.469 1203.51 774.84 1222.18 743.808Z" fill="#F5F5F5"/>
<path d="M1166.07 779.132C1158.86 779.132 1151.76 777.614 1145.17 774.407C1133.69 768.82 1125.01 758.592 1120.73 745.606C1115.23 728.923 1117.3 709.336 1126.41 691.867C1143.25 659.599 1179.06 644.102 1206.23 657.327C1217.71 662.914 1226.39 673.143 1230.67 686.129C1236.17 702.813 1234.1 722.4 1224.99 739.868C1212.23 764.312 1188.59 779.132 1166.07 779.132ZM1185.32 653.599C1163.16 653.599 1139.88 668.223 1127.3 692.33C1118.31 709.56 1116.26 728.865 1121.68 745.293C1125.87 758.02 1134.37 768.04 1145.61 773.509C1172.3 786.494 1207.51 771.2 1224.1 739.405C1233.09 722.175 1235.14 702.871 1229.72 686.442C1225.53 673.714 1217.03 663.694 1205.79 658.225C1199.34 655.086 1192.38 653.599 1185.32 653.599Z" fill="#263238"/>
<path d="M1189.61 722.893C1195.45 712.582 1193.97 700.696 1186.3 696.345C1178.62 691.994 1167.66 696.825 1161.82 707.137C1155.97 717.448 1157.45 729.334 1165.13 733.685C1172.8 738.036 1183.76 733.204 1189.61 722.893Z" fill="#1D5B96"/>
<path d="M1167.79 756.665C1163.36 756.665 1159.07 755.69 1155.15 753.632C1148.57 750.172 1143.87 744.205 1141.57 736.377C1138.31 725.323 1140.28 712.177 1146.97 700.307C1158.66 679.569 1181.32 669.606 1197.47 678.104C1204.05 681.564 1208.74 687.53 1211.05 695.358C1214.31 706.412 1212.34 719.559 1205.65 731.429C1196.79 747.14 1181.64 756.665 1167.79 756.665ZM1184.62 683.006C1173.69 683.006 1161.35 691.096 1153.94 704.236C1148.39 714.086 1146.63 725.256 1149.24 734.115C1150.92 739.821 1154.25 744.121 1158.87 746.551C1171.23 753.051 1189.09 744.504 1198.68 727.498C1204.23 717.648 1205.99 706.477 1203.38 697.619C1201.7 691.913 1198.37 687.613 1193.74 685.183C1190.93 683.706 1187.84 683.006 1184.62 683.006Z" fill="#1D5B96"/>
<path d="M1166.09 772.459C1158.94 772.459 1151.98 770.803 1145.7 767.301C1135.98 761.878 1128.91 752.503 1125.8 740.905C1121.68 725.509 1124.66 707.733 1133.99 692.132C1150.89 663.861 1183.6 651.436 1206.92 664.434C1216.64 669.859 1223.71 679.234 1226.82 690.832C1230.94 706.228 1227.96 724.005 1218.63 739.604C1206.28 760.26 1185.49 772.459 1166.09 772.459ZM1186.39 667.228C1169.8 667.228 1151.73 678.053 1140.86 696.237C1132.63 709.991 1129.96 725.518 1133.53 738.836C1136.11 748.464 1141.66 755.891 1149.6 760.315C1169.17 771.226 1197.06 760.098 1211.76 735.499C1219.99 721.746 1222.66 706.22 1219.09 692.901C1216.51 683.273 1210.95 675.845 1203.02 671.421C1197.92 668.575 1192.25 667.228 1186.39 667.228Z" fill="#1D5B96"/>
<path d="M1093.63 659.839L1091.2 652.069L1093.82 649.12L1102.22 650.634L1113.01 664.544L1110.69 667.701L1093.63 659.839Z" fill="#7CB1DE"/>
<path d="M1086.73 648.484L1172.69 717.443C1173.54 718.131 1174.55 717.861 1175.23 717.016C1175.88 716.207 1176.01 715.181 1175.19 714.521L1089.3 645.491C1088.41 644.774 1087.08 644.924 1086.39 645.82C1085.76 646.65 1085.91 647.82 1086.73 648.484Z" fill="#263238"/>
<path d="M1175.46 710.369C1175.5 710.338 1175.97 710.915 1176.24 712.055C1176.52 713.17 1176.5 714.908 1175.58 716.486C1174.67 718.061 1173.2 718.963 1172.12 719.325C1171.01 719.702 1170.28 719.64 1170.28 719.585C1170.27 719.498 1170.97 719.425 1171.98 718.983C1172.98 718.554 1174.3 717.666 1175.13 716.226C1175.97 714.786 1176.05 713.196 1175.88 712.124C1175.71 711.035 1175.38 710.408 1175.46 710.369Z" fill="#263238"/>
<path d="M1161.09 586.714L1162.07 578.632L1165.61 577.125L1172.51 582.2L1176.51 599.508L1173.14 601.33L1161.09 586.714Z" fill="#7CB1DE"/>
<path d="M1211.49 671.941L1163.11 571.616C1162.6 570.577 1161.36 570.128 1160.39 570.632C1159.49 571.098 1159.16 572.217 1159.62 573.178L1208.02 673.037" fill="#263238"/>
<path d="M1211.49 671.941L1163.11 571.616C1162.6 570.577 1161.36 570.128 1160.39 570.632C1159.49 571.098 1159.16 572.217 1159.62 573.178L1208.02 673.037C1208.02 673.037 1208.59 673.9 1210.05 673.421C1211.5 672.942 1211.49 671.941 1211.49 671.941Z" fill="#263238"/>
<path d="M1213.48 667.668C1213.54 667.664 1213.66 668.399 1213.32 669.514C1213.01 670.608 1212.13 672.084 1210.54 672.954C1208.95 673.823 1207.22 673.831 1206.09 673.574C1204.93 673.321 1204.32 672.886 1204.35 672.84C1204.38 672.76 1205.03 673.064 1206.14 673.212C1207.23 673.366 1208.82 673.293 1210.27 672.498C1211.72 671.704 1212.59 670.387 1212.97 669.384C1213.37 668.369 1213.39 667.659 1213.48 667.668Z" fill="#263238"/>
<path d="M1284 837.5C1284 837.777 1031.47 838 720.027 838C408.478 838 156 837.775 156 837.5C156 837.223 408.478 837 720.027 837C1031.47 837 1284 837.223 1284 837.5Z" fill="#263238"/>
<path d="M230.522 576.821L230.458 570.69L232.985 569.132L238.715 572.05L243.47 584.424L241.109 586.195L230.522 576.821Z" fill="#7CB1DE"/>
<path d="M277.859 634.416L230.517 565.535C230.029 564.824 229.038 564.643 228.348 565.14C227.709 565.6 227.562 566.476 228.015 567.134L275.001 635.532" fill="#263238"/>
<path d="M248.225 577.077L249.887 571.623L252.565 570.949L256.829 575.144L257.577 587.451L254.986 588.359L248.225 577.077Z" fill="#7CB1DE"/>
<path d="M274.06 641.429L251.386 567.067C251.153 566.299 250.325 565.862 249.573 566.109C248.877 566.338 248.502 567.074 248.718 567.784L271.212 641.618" fill="#263238"/>
<path d="M245.124 600.445L283.124 665.266C286.779 671.501 294.931 673.37 300.937 669.351C306.548 665.596 308.185 658.076 304.642 652.329L264.18 586.694L245.124 600.445Z" fill="#12395E"/>
<path d="M245.124 600.445C245.124 600.445 252.965 606.983 260.252 601.882C267.54 596.781 264.18 586.693 264.18 586.693L245.124 600.445Z" fill="#263238"/>
<path d="M268.756 597.827L312.808 532.69L318.267 532.624L269.728 602.762L268.756 597.827Z" fill="#12395E"/>
<path d="M416.176 539.592C414.462 539.608 412.841 540.408 411.821 541.785C411.043 542.835 410.035 543.91 409.071 544.093C407.102 544.468 403.583 545.036 403.583 545.036L403.032 556.711L415.886 556.168L427.876 552.918C427.876 552.918 435.365 552.841 436.637 552.73C437.991 552.612 438.109 551.105 435.732 551.097C434.152 551.091 430.546 549.988 430.546 549.988C430.546 549.988 436.784 549.363 437.567 548.622C438.35 547.881 438.208 547.241 437.351 547.144C435.675 546.954 430.229 547.434 429.835 547.144C429.441 546.854 416.176 539.592 416.176 539.592Z" fill="#B78876"/>
<path d="M356.025 810.367L355.592 828.2C355.592 828.2 373.573 834.629 373.814 837.933L339.206 838.335L338.74 810.521L356.025 810.367Z" fill="#1D5B96"/>
<path d="M344.873 826.826C344.205 827.017 343.751 827.775 343.915 828.45C344.078 829.125 344.846 829.593 345.517 829.414C346.188 829.235 346.761 828.341 346.523 827.689C346.285 827.037 345.354 826.536 344.746 826.871" fill="#92A4B5"/>
<path d="M339.206 838.336L339.159 835.529L372.427 836.194C372.427 836.194 373.975 836.846 373.814 837.934L339.206 838.336Z" fill="#92A4B5"/>
<path d="M356.151 828.018C356.147 828.187 355.303 828.273 354.478 828.827C353.638 829.358 353.218 830.096 353.062 830.03C352.906 829.999 353.146 828.986 354.157 828.334C355.162 827.673 356.186 827.863 356.151 828.018Z" fill="#263238"/>
<path d="M359.798 829.477C359.838 829.64 359.11 829.936 358.544 830.658C357.957 831.363 357.821 832.137 357.653 832.132C357.495 832.16 357.366 831.172 358.086 830.288C358.799 829.398 359.793 829.316 359.798 829.477Z" fill="#263238"/>
<path d="M361.91 833.798C361.757 833.836 361.512 832.994 361.935 832.064C362.352 831.13 363.144 830.756 363.217 830.896C363.314 831.034 362.807 831.536 362.471 832.306C362.118 833.066 362.078 833.779 361.91 833.798Z" fill="#263238"/>
<path d="M355.799 823.943C355.73 824.098 354.952 823.874 353.998 823.95C353.042 824.007 352.303 824.336 352.213 824.192C352.114 824.071 352.832 823.437 353.958 823.363C355.081 823.281 355.88 823.809 355.799 823.943Z" fill="#263238"/>
<path d="M355.82 820.344C355.823 820.414 355.156 820.526 354.086 820.355C353.554 820.269 352.926 820.103 352.266 819.819C351.937 819.677 351.599 819.506 351.265 819.302C351.104 819.201 350.914 819.1 350.737 818.9C350.548 818.726 350.436 818.279 350.649 818.002C350.823 817.734 351.135 817.616 351.385 817.607C351.64 817.596 351.847 817.645 352.036 817.689C352.423 817.778 352.785 817.902 353.118 818.046C353.783 818.339 354.324 818.713 354.729 819.077C355.54 819.811 355.822 820.439 355.764 820.473C355.688 820.53 355.291 820.005 354.467 819.401C354.056 819.1 353.532 818.791 352.911 818.548C352.6 818.428 352.265 818.326 351.912 818.253C351.544 818.161 351.232 818.162 351.14 818.326C351.106 818.389 351.102 818.413 351.18 818.52C351.261 818.618 351.41 818.713 351.568 818.813C351.877 819.009 352.186 819.179 352.49 819.326C353.097 819.619 353.677 819.816 354.173 819.949C355.168 820.213 355.822 820.252 355.82 820.344Z" fill="#263238"/>
<path d="M355.602 820.588C355.543 820.615 355.2 820.013 355.125 818.919C355.09 818.377 355.138 817.718 355.339 817.019C355.441 816.67 355.582 816.313 355.768 815.962C355.967 815.618 356.209 815.157 356.863 815.074C357.205 815.057 357.493 815.321 357.592 815.549C357.709 815.782 357.734 815.982 357.777 816.182C357.845 816.586 357.842 816.982 357.792 817.349C357.692 818.087 357.397 818.703 357.073 819.148C356.407 820.053 355.704 820.263 355.689 820.206C355.632 820.122 356.217 819.789 356.724 818.921C356.974 818.493 357.194 817.93 357.253 817.286C357.283 816.965 357.274 816.625 357.209 816.285C357.151 815.918 357.009 815.623 356.872 815.662C356.7 815.661 356.411 815.942 356.272 816.237C356.098 816.549 355.96 816.869 355.854 817.181C355.644 817.809 355.557 818.409 355.538 818.914C355.506 819.931 355.694 820.561 355.602 820.588Z" fill="#263238"/>
<path d="M265.062 806.083L259.543 827.983L250.183 844.046C249.509 845.204 249.955 846.691 251.156 847.285C251.829 847.618 252.614 847.608 253.274 847.251C257.477 844.983 272.896 836.565 273.21 834.94C273.574 833.058 280.565 812.225 280.565 812.225L265.062 806.083Z" fill="#1D5B96"/>
<path d="M251.157 847.285L273.618 833.471L273.363 834.393C273.142 835.19 272.65 835.885 271.965 836.35C270.134 837.592 265.002 840.912 253.341 847.27C252.662 847.641 251.839 847.647 251.157 847.285Z" fill="#92A4B5"/>
<path d="M271.091 825.214C270.441 825.44 270.035 826.216 270.234 826.874C270.434 827.532 271.219 827.952 271.872 827.738C272.525 827.523 273.042 826.607 272.77 825.975C272.498 825.343 271.549 824.9 270.967 825.266" fill="#92A4B5"/>
<path d="M258.762 839.15C258.622 839.176 258.446 837.9 257.321 836.929C256.225 835.924 254.938 835.899 254.947 835.757C254.943 835.698 255.265 835.605 255.794 835.674C256.319 835.739 257.036 836.014 257.65 836.558C258.262 837.104 258.618 837.784 258.744 838.298C258.875 838.816 258.82 839.147 258.762 839.15Z" fill="#263238"/>
<path d="M256.405 841.636C256.275 841.701 255.772 840.801 254.736 840.167C253.713 839.51 252.684 839.451 252.686 839.305C252.654 839.176 253.829 839.004 255 839.747C256.177 840.476 256.535 841.609 256.405 841.636Z" fill="#263238"/>
<path d="M262.681 836.211C262.551 836.286 261.784 834.897 260.258 833.77C258.749 832.619 257.201 832.271 257.237 832.125C257.234 831.999 258.935 832.144 260.556 833.374C262.188 834.586 262.803 836.18 262.681 836.211Z" fill="#263238"/>
<path d="M264.915 829.694C264.821 829.808 263.757 828.973 262.208 828.484C260.665 827.974 259.314 828.028 259.305 827.88C259.274 827.757 260.701 827.467 262.361 828.012C264.024 828.542 265.012 829.612 264.915 829.694Z" fill="#263238"/>
<path d="M266.697 823.306C266.595 823.413 265.586 822.353 263.913 821.972C262.248 821.553 260.869 822.041 260.826 821.899C260.803 821.844 261.116 821.636 261.698 821.485C262.276 821.332 263.129 821.276 264.028 821.49C264.926 821.707 265.661 822.144 266.107 822.542C266.558 822.941 266.743 823.267 266.697 823.306Z" fill="#263238"/>
<path d="M264.288 820.767C264.26 820.76 264.292 820.453 264.486 819.935C264.68 819.421 265.048 818.688 265.737 817.959C266.084 817.62 266.473 817.167 267.16 817.049C267.502 816.988 267.937 817.168 268.115 817.528C268.293 817.879 268.276 818.259 268.188 818.606C267.783 819.982 266.227 820.99 264.619 820.759C263.011 820.499 261.844 819.217 261.556 817.853C261.506 817.507 261.517 817.102 261.788 816.781C262.057 816.456 262.54 816.43 262.837 816.57C263.457 816.845 263.762 817.33 264.065 817.712C264.648 818.523 264.937 819.285 265.083 819.814C265.229 820.347 265.238 820.654 265.21 820.659C265.118 820.695 264.955 819.438 263.786 817.924C263.485 817.567 263.145 817.127 262.691 816.955C262.47 816.87 262.25 816.906 262.119 817.067C261.987 817.22 261.957 817.506 262.008 817.781C262.261 818.902 263.33 820.071 264.693 820.27C266.047 820.479 267.413 819.59 267.749 818.486C267.826 818.219 267.829 817.93 267.73 817.731C267.632 817.536 267.43 817.433 267.207 817.459C266.736 817.513 266.326 817.891 265.988 818.208C264.626 819.551 264.378 820.815 264.288 820.767Z" fill="#263238"/>
<path d="M285.363 500.553C284.537 498.465 283.479 496.511 283.004 494.317C282.65 492.684 282.097 490.233 282.718 488.682C283.339 487.131 284.895 485.621 286.919 485.987C287.342 482.729 289.002 480.05 292.247 478.375C295.167 476.868 298.053 476.094 301.323 475.772C302.311 475.675 303.856 475.701 304.757 476.116C305.659 476.531 306.508 477.393 306.871 478.284C308.558 476.877 311.028 476.419 313.556 477.04C316.085 477.66 318.988 478.945 320.149 481.275C320.868 482.718 321.165 484.517 320.488 486.841C320.037 488.388 318.474 490.838 316.95 490.315" fill="#263238"/>
<path d="M287.852 544.385L310.515 543.345C310.643 540.941 309.416 526.063 309.416 526.063C309.416 526.063 317.982 524.731 318.088 516.166C318.194 507.602 316.709 487.935 316.709 487.935C306.794 483.674 295.351 485.113 286.799 491.695L285.53 492.672L287.852 544.385Z" fill="#B78876"/>
<path d="M309.415 526.064C309.415 526.064 304.016 526.381 298.263 522.767C298.263 522.767 301.036 528.914 309.582 528.142L309.415 526.064Z" fill="#AA6550"/>
<path d="M286.585 500.544C286.439 500.481 280.7 498.803 280.887 504.659C281.074 510.514 286.914 509.119 286.919 508.95C286.924 508.782 286.585 500.544 286.585 500.544Z" fill="#B78876"/>
<path d="M285.059 506.789C285.033 506.771 284.959 506.864 284.79 506.948C284.624 507.03 284.337 507.093 284.028 506.988C283.402 506.781 282.85 505.815 282.788 504.761C282.756 504.228 282.851 503.717 283.027 503.291C283.192 502.857 283.46 502.549 283.769 502.484C284.077 502.402 284.303 502.582 284.38 502.744C284.464 502.905 284.43 503.023 284.462 503.032C284.479 503.046 284.584 502.93 284.53 502.69C284.502 502.574 284.429 502.439 284.288 502.33C284.144 502.22 283.935 502.169 283.719 502.199C283.268 502.245 282.876 502.673 282.683 503.141C282.465 503.612 282.346 504.187 282.381 504.784C282.456 505.963 283.095 507.047 283.95 507.265C284.365 507.359 284.705 507.224 284.878 507.08C285.053 506.931 285.08 506.799 285.059 506.789Z" fill="#AA6550"/>
<path d="M315.563 501.12C315.41 501.278 314.491 500.582 313.174 500.571C311.86 500.541 310.886 501.207 310.745 501.044C310.676 500.972 310.834 500.686 311.257 500.384C311.675 500.084 312.384 499.795 313.204 499.808C314.024 499.822 314.71 500.131 315.103 500.445C315.505 500.759 315.639 501.049 315.563 501.12Z" fill="#263238"/>
<path d="M301.931 500.668C301.954 501.314 301.426 501.866 300.752 501.902C300.079 501.938 299.514 501.445 299.491 500.799C299.468 500.153 299.996 499.6 300.669 499.564C301.343 499.528 301.908 500.022 301.931 500.668Z" fill="#263238"/>
<path d="M302.15 499.229C301.998 499.389 301.07 498.703 299.755 498.706C298.441 498.691 297.474 499.368 297.332 499.206C297.262 499.135 297.415 498.847 297.837 498.541C298.251 498.236 298.957 497.939 299.777 497.943C300.597 497.948 301.286 498.249 301.683 498.558C302.087 498.87 302.224 499.158 302.15 499.229Z" fill="#263238"/>
<path d="M306.927 508.99C306.921 508.915 307.739 508.774 309.065 508.604C309.401 508.569 309.719 508.502 309.776 508.273C309.855 508.03 309.715 507.668 309.552 507.277C309.236 506.464 308.905 505.611 308.558 504.718C307.178 501.074 306.179 498.078 306.326 498.024C306.473 497.97 307.712 500.879 309.092 504.523C309.424 505.422 309.742 506.278 310.044 507.098C310.171 507.48 310.39 507.913 310.218 508.417C310.128 508.668 309.881 508.851 309.665 508.909C309.45 508.975 309.261 508.978 309.094 508.988C307.759 509.059 306.932 509.065 306.927 508.99Z" fill="#263238"/>
<path d="M303.053 509.901C303.267 509.889 303.27 511.317 304.493 512.331C305.714 513.348 307.237 513.188 307.248 513.388C307.268 513.478 306.909 513.665 306.266 513.683C305.635 513.705 304.715 513.502 303.966 512.882C303.22 512.26 302.899 511.43 302.851 510.844C302.796 510.246 302.955 509.893 303.053 509.901Z" fill="#263238"/>
<path d="M302.49 494.072C302.36 494.43 301.046 494.26 299.502 494.446C297.954 494.601 296.709 495.053 296.504 494.732C296.413 494.578 296.63 494.242 297.133 493.895C297.632 493.549 298.428 493.22 299.355 493.117C300.282 493.016 301.131 493.163 301.693 493.391C302.26 493.621 302.546 493.902 302.49 494.072Z" fill="#263238"/>
<path d="M314.604 495.175C314.372 495.474 313.466 495.164 312.375 495.149C311.285 495.096 310.362 495.35 310.149 495.037C310.056 494.885 310.201 494.586 310.605 494.303C311.003 494.021 311.667 493.791 312.417 493.813C313.166 493.837 313.815 494.108 314.195 494.414C314.579 494.721 314.706 495.029 314.604 495.175Z" fill="#263238"/>
<path d="M285.069 491.282C285.185 493.777 284.628 496.556 285.066 499.008C285.132 499.378 286.093 500.367 286.178 500.733C286.682 502.903 287.581 503.833 288.871 501.594C289.367 500.733 289.688 498.338 289.879 497.37C290.399 494.734 290.918 492.098 291.437 489.461C293.48 490.413 295.698 491.142 297.948 491.005C300.198 490.869 302.485 489.727 303.514 487.722C304.581 489.494 306.482 490.739 308.533 491.009C310.584 491.278 312.742 490.566 314.23 489.128C314.995 490.35 316.813 490.69 318.045 489.941C319.277 489.192 319.828 487.55 319.436 486.163C318.846 484.073 316.608 482.94 314.525 482.327C306.38 479.93 297.372 481.808 290.05 486.105C288.982 486.732 287.93 487.419 287.094 488.332C286.258 489.246 285.098 490.32 285.063 491.558" fill="#263238"/>
<path d="M291.231 491.519C291.214 491.602 290.67 491.424 289.908 491.765C289.532 491.931 289.114 492.207 288.706 492.583C288.299 492.956 287.895 493.445 287.409 493.922C286.927 494.401 286.37 494.817 285.771 495.009C285.173 495.206 284.596 495.181 284.15 495.072C283.238 494.841 282.866 494.351 282.909 494.32C282.956 494.251 283.392 494.608 284.216 494.723C284.621 494.778 285.122 494.761 285.618 494.573C286.117 494.388 286.598 494.02 287.058 493.563C287.523 493.108 287.939 492.624 288.401 492.235C288.86 491.848 289.342 491.574 289.784 491.433C290.697 491.139 291.272 491.478 291.231 491.519Z" fill="#12395E"/>
<path d="M290.295 494.103C290.286 494.174 289.856 494.125 289.378 494.539C289.141 494.734 288.918 495.04 288.654 495.404C288.395 495.769 288.027 496.177 287.566 496.468C286.644 497.078 285.606 497.191 284.914 497.1C284.208 497.011 283.834 496.76 283.858 496.708C283.884 496.633 284.287 496.754 284.935 496.746C285.574 496.742 286.48 496.585 287.29 496.048C288.114 495.554 288.508 494.656 289.168 494.252C289.813 493.834 290.338 494.041 290.295 494.103Z" fill="#12395E"/>
<path d="M312.456 476.89C312.455 476.863 312.73 476.812 313.209 476.941C313.679 477.071 314.348 477.423 314.89 478.139C315.977 479.581 316.281 482.184 315.533 484.727C314.775 487.313 312.946 489.126 311.47 489.988C310.73 490.439 310.075 490.693 309.616 490.835C309.156 490.977 308.89 491.005 308.882 490.977C308.851 490.89 309.891 490.629 311.277 489.69C312.655 488.778 314.333 487.031 315.052 484.582C315.765 482.172 315.517 479.69 314.601 478.346C314.145 477.672 313.563 477.301 313.144 477.126C312.72 476.95 312.453 476.932 312.456 476.89Z" fill="#12395E"/>
<path d="M319.632 480.266C319.689 480.266 319.757 480.902 319.6 481.918C319.447 482.93 319.012 484.312 318.175 485.648C317.332 486.981 316.274 487.971 315.428 488.546C314.58 489.127 313.977 489.34 313.953 489.289C313.858 489.159 316.147 487.978 317.751 485.381C319.398 482.812 319.473 480.237 319.632 480.266Z" fill="#12395E"/>
<path d="M365.44 539.864C349.188 538.752 338.188 536.303 328.547 534.761C318.906 533.219 311.301 532.543 311.301 532.543L319.565 547.57L331.126 567.189C329.843 562.652 333.413 558.986 335.853 558.885C338.536 558.774 408.965 559.01 408.965 559.01L407.514 542.429L365.44 539.864Z" fill="#1D5B96"/>
<path d="M275.593 565.468L282.874 597.297L280.183 626.343L339.762 626.04L331.556 561.941L311.301 532.175L268.756 535.072L275.593 565.468Z" fill="#1D5B96"/>
<path d="M311.301 532.175L310.195 528.226L286.919 529.112V534.192L311.301 532.175Z" fill="#1D5B96"/>
<path d="M281.958 554.029L289.767 553.784L289.775 535.584L268.755 533.606C268.755 533.606 240.352 531.303 234.537 531.49C228.722 531.678 220.26 534.202 220.231 544.013C220.19 557.911 264.469 564.422 276.753 568.254" fill="#1D5B96"/>
<path d="M288.544 535.584C288.567 535.582 288.618 535.954 288.695 536.653C288.77 537.411 288.871 538.426 288.997 539.691C289.234 542.376 289.563 546.114 289.959 550.599L289.98 550.838L289.738 550.834C284.441 550.747 278.106 550.644 271.296 550.533C262.066 550.331 253.713 550.148 247.593 550.014C244.607 549.924 242.169 549.85 240.411 549.797C239.606 549.762 238.958 549.733 238.459 549.712C238.013 549.687 237.779 549.665 237.779 549.647C237.779 549.629 238.014 549.616 238.461 549.607C238.961 549.604 239.609 549.6 240.415 549.595C242.174 549.607 244.613 549.625 247.6 549.646C253.721 549.741 262.075 549.87 271.306 550.012C278.115 550.155 284.45 550.288 289.747 550.399L289.526 550.633C289.206 546.142 288.939 542.399 288.748 539.711C288.672 538.442 288.61 537.423 288.565 536.663C288.529 535.961 288.521 535.586 288.544 535.584Z" fill="#263238"/>
<path d="M277.467 553.387C277.527 553.376 277.708 553.928 277.755 554.86C277.805 555.788 277.671 557.098 277.168 558.439C276.661 559.779 275.898 560.852 275.247 561.516C274.596 562.185 274.096 562.481 274.059 562.433C273.941 562.319 275.732 560.841 276.68 558.255C277.674 555.688 277.303 553.395 277.467 553.387Z" fill="#263238"/>
<path d="M333.08 573.851C333.007 573.859 332.818 572.702 332.538 570.831C332.258 568.96 331.88 566.375 331.412 563.53C330.942 560.684 330.459 558.12 330.067 556.272C329.681 554.423 329.403 553.286 329.478 553.264C329.541 553.245 329.945 554.35 330.426 556.187C330.912 558.022 331.455 560.589 331.927 563.445C332.396 566.3 332.717 568.899 332.904 570.785C333.091 572.671 333.15 573.843 333.08 573.851Z" fill="#263238"/>
<path d="M334.606 582.779C334.564 582.838 333.987 582.202 332.619 581.64C331.274 581.061 329.08 580.726 326.496 581.269C323.89 581.756 321.116 583.338 318.097 585.139C316.575 586.025 314.957 586.964 313.144 587.664C311.342 588.381 309.378 588.874 307.333 589.094C303.24 589.561 299.259 588.901 295.967 587.552C294.311 586.889 292.843 586.031 291.514 585.205C290.179 584.383 288.94 583.626 287.743 583.068C285.361 581.923 283.147 581.738 281.707 581.996C280.25 582.249 279.564 582.774 279.537 582.712C279.529 582.7 279.694 582.573 280.039 582.379C280.385 582.188 280.929 581.954 281.67 581.797C283.141 581.468 285.436 581.602 287.897 582.733C289.128 583.281 290.395 584.031 291.738 584.836C293.078 585.647 294.522 586.471 296.146 587.107C299.377 588.403 303.272 589.033 307.276 588.577C309.275 588.362 311.196 587.884 312.959 587.19C314.73 586.514 316.332 585.598 317.857 584.725C320.88 582.954 323.735 581.364 326.426 580.909C329.086 580.398 331.344 580.802 332.701 581.456C333.389 581.769 333.868 582.114 334.174 582.362C334.47 582.622 334.618 582.765 334.606 582.779Z" fill="#FAFAFA"/>
<path d="M316.193 604.805C316.191 604.836 315.757 604.85 314.973 604.797C314.19 604.746 313.059 604.6 311.687 604.283C308.954 603.665 305.235 602.19 301.896 599.437C298.554 596.685 296.396 593.315 295.268 590.75C294.694 589.464 294.335 588.382 294.136 587.623C293.934 586.864 293.864 586.435 293.895 586.428C293.991 586.399 294.386 588.096 295.601 590.594C296.799 593.082 298.96 596.343 302.227 599.035C305.493 601.727 309.106 603.225 311.777 603.925C314.462 604.641 316.203 604.705 316.193 604.805Z" fill="#263238"/>
<path d="M337.483 611.124C337.453 611.179 336.757 610.708 335.353 610.222C333.955 609.738 331.797 609.346 329.151 609.637C326.507 609.897 323.438 610.798 320.245 612.292C317.028 613.731 313.619 615.672 309.689 616.951C305.757 618.276 301.688 618.282 298.189 617.665C294.668 617.037 291.653 615.88 289.196 614.807C286.738 613.723 284.828 612.685 283.519 611.957C282.862 611.596 282.363 611.297 282.024 611.095C281.686 610.891 281.513 610.777 281.521 610.761C281.53 610.745 281.72 610.829 282.074 611.003C282.476 611.205 282.986 611.462 283.614 611.778C284.951 612.449 286.88 613.435 289.342 614.469C291.802 615.492 294.802 616.6 298.27 617.192C301.723 617.771 305.677 617.752 309.53 616.454C313.388 615.2 316.798 613.28 320.048 611.853C323.278 610.37 326.42 609.485 329.117 609.269C331.818 609.019 334.021 609.478 335.422 610.029C336.124 610.304 336.651 610.568 336.983 610.784C337.32 610.993 337.492 611.109 337.483 611.124Z" fill="#FAFAFA"/>
<path d="M331.526 562.843C331.536 562.858 331.37 562.975 331.043 563.184C330.724 563.408 330.217 563.671 329.554 563.998C328.215 564.605 326.135 565.26 323.492 565.413C320.853 565.592 317.695 565.284 314.301 564.514C310.904 563.758 307.271 562.581 303.373 561.777C301.424 561.387 299.498 561.109 297.631 561.075C295.765 561.028 293.966 561.22 292.287 561.572C288.923 562.288 286.053 563.55 283.719 564.711C281.38 565.876 279.555 566.958 278.281 567.68C277.684 568.019 277.199 568.296 276.814 568.515C276.476 568.702 276.294 568.793 276.285 568.777C276.276 568.762 276.439 568.641 276.76 568.425C277.132 568.184 277.601 567.88 278.177 567.506C279.421 566.729 281.22 565.597 283.553 564.382C285.88 563.172 288.766 561.858 292.188 561.102C293.896 560.73 295.738 560.523 297.643 560.564C299.55 560.591 301.507 560.871 303.478 561.265C307.417 562.078 311.046 563.269 314.409 564.044C317.766 564.833 320.875 565.172 323.473 565.043C326.076 564.938 328.129 564.351 329.475 563.809C330.817 563.246 331.495 562.792 331.526 562.843Z" fill="#FAFAFA"/>
<path d="M267.293 550.145C267.346 550.142 267.466 551.059 267.285 552.535C267.11 554.006 266.55 556.024 265.404 557.993C264.25 559.959 262.765 561.437 261.57 562.31C260.373 563.191 259.515 563.537 259.491 563.489C259.446 563.411 260.233 562.954 261.341 562.022C262.45 561.096 263.838 559.631 264.955 557.73C266.063 555.825 266.659 553.897 266.922 552.477C267.19 551.054 267.203 550.145 267.293 550.145Z" fill="#FAFAFA"/>
<path d="M255.858 532.624C255.932 532.685 255.273 533.463 254.506 534.889C253.735 536.308 252.941 538.429 252.693 540.884C252.457 543.341 252.824 545.577 253.304 547.118C253.779 548.666 254.273 549.557 254.189 549.602C254.158 549.62 254.013 549.41 253.776 549.013C253.53 548.621 253.243 548.012 252.955 547.234C252.372 545.684 251.931 543.373 252.175 540.833C252.43 538.295 253.312 536.114 254.186 534.707C254.62 534.001 255.02 533.459 255.338 533.122C255.648 532.777 255.831 532.6 255.858 532.624Z" fill="#FAFAFA"/>
<path d="M230.944 555.04C230.911 555.055 230.749 554.745 230.483 554.169C230.345 553.883 230.189 553.527 230.048 553.099C229.902 552.673 229.709 552.194 229.578 551.64C229.258 550.549 229.01 549.211 228.864 547.712C228.747 546.211 228.75 544.548 228.959 542.821C229.188 541.095 229.602 539.484 230.09 538.06C230.604 536.644 231.18 535.412 231.76 534.434C232.024 533.931 232.331 533.515 232.578 533.138C232.821 532.758 233.061 532.452 233.265 532.209C233.665 531.717 233.899 531.457 233.927 531.479C234.007 531.54 233.13 532.634 232.083 534.611C231.553 535.596 231.023 536.82 230.544 538.215C230.091 539.619 229.7 541.197 229.476 542.886C229.272 544.576 229.254 546.202 229.343 547.674C229.461 549.144 229.665 550.462 229.935 551.547C230.458 553.724 231.037 555.001 230.944 555.04Z" fill="#FAFAFA"/>
<path d="M280.294 534.315C280.362 534.31 280.498 535.172 280.601 536.577C280.705 537.981 280.762 539.93 280.681 542.079C280.598 544.229 280.393 546.167 280.183 547.559C279.973 548.952 279.772 549.801 279.705 549.791C279.631 549.78 279.702 548.913 279.818 547.517C279.934 546.121 280.079 544.193 280.162 542.059C280.242 539.926 280.244 537.993 280.234 536.592C280.225 535.19 280.219 534.32 280.294 534.315Z" fill="#FAFAFA"/>
<g opacity="0.4">
<path d="M240.944 549.647C253.709 554.212 267.801 556.166 281.163 553.872C283.938 553.395 286.956 552.918 288.545 550.593" fill="#040316"/>
</g>
<path d="M335.227 535.954C335.243 535.963 335.17 536.123 335.017 536.422C334.867 536.723 334.633 537.16 334.294 537.702C333.623 538.784 332.569 540.325 330.943 541.946C329.316 543.548 327.088 545.249 324.219 546.317C322.789 546.845 321.214 547.212 319.556 547.332C317.899 547.445 316.174 547.337 314.451 547.032C310.994 546.435 307.861 545.306 304.985 544.464C302.116 543.603 299.467 543.051 297.214 542.917C294.96 542.759 293.135 543.047 291.916 543.359C290.697 543.691 290.06 543.998 290.038 543.947C290.03 543.931 290.185 543.847 290.489 543.702C290.788 543.545 291.254 543.371 291.861 543.164C293.081 542.787 294.939 542.436 297.234 542.549C299.529 542.637 302.224 543.162 305.121 544.003C308.019 544.825 311.144 545.933 314.54 546.518C316.233 546.818 317.913 546.925 319.521 546.823C321.128 546.714 322.661 546.367 324.055 545.866C326.853 544.852 329.054 543.223 330.687 541.681C332.319 540.121 333.407 538.631 334.125 537.591C334.843 536.547 335.182 535.928 335.227 535.954Z" fill="#FAFAFA"/>
<path d="M311.106 529.676C311.115 529.71 310.789 529.836 310.189 530.031C309.588 530.224 308.714 530.49 307.614 530.754C306.514 531.015 305.179 531.277 303.668 531.338C302.155 531.402 300.498 531.21 298.803 530.91C297.105 530.614 295.507 530.283 294.042 530.129C292.578 529.969 291.249 529.986 290.15 530.134C287.936 530.433 286.761 531.276 286.717 531.182C286.703 531.161 286.968 530.924 287.532 530.623C288.093 530.319 288.965 529.977 290.092 529.771C291.219 529.57 292.589 529.515 294.088 529.652C295.59 529.783 297.205 530.103 298.891 530.397C300.576 530.695 302.187 530.895 303.653 530.858C305.12 530.825 306.438 530.606 307.536 530.394C309.731 529.947 311.085 529.594 311.106 529.676Z" fill="#FAFAFA"/>
<path d="M351.303 538.501C351.339 538.498 351.388 538.812 351.446 539.386C351.515 539.959 351.533 540.796 351.482 541.827C351.44 542.86 351.271 544.084 350.974 545.419C350.654 546.749 350.191 548.187 349.541 549.629C348.875 551.064 348.09 552.355 347.293 553.467C346.476 554.565 345.661 555.493 344.907 556.201C344.16 556.913 343.515 557.447 343.037 557.77C342.565 558.101 342.296 558.269 342.274 558.241C342.216 558.164 343.241 557.41 344.646 555.942C345.354 555.214 346.124 554.279 346.903 553.189C347.661 552.084 348.416 550.816 349.068 549.413C349.703 548.003 350.169 546.603 350.508 545.307C350.824 544.005 351.027 542.812 351.115 541.8C351.307 539.776 351.207 538.507 351.303 538.501Z" fill="#FAFAFA"/>
<path d="M374.096 540.31C374.178 540.333 373.913 541.366 373.649 543.056C373.382 544.744 373.169 547.104 373.311 549.706C373.46 552.308 373.934 554.629 374.388 556.278C374.839 557.928 375.217 558.925 375.138 558.957C375.084 558.981 374.583 558.03 374.035 556.384C373.485 554.742 372.943 552.386 372.791 549.736C372.646 547.086 372.923 544.684 373.287 542.992C373.648 541.294 374.041 540.292 374.096 540.31Z" fill="#FAFAFA"/>
<path d="M396.758 558.956C396.684 558.952 396.673 557.997 396.681 556.456C396.687 554.727 396.694 552.69 396.702 550.439C396.68 548.188 396.659 546.15 396.642 544.421C396.624 542.88 396.629 541.925 396.703 541.92C396.773 541.916 396.898 542.864 397.01 544.405C397.123 545.945 397.215 548.078 397.223 550.436C397.23 552.793 397.152 554.926 397.049 556.468C396.947 558.01 396.828 558.96 396.758 558.956Z" fill="#FAFAFA"/>
<path d="M338.503 618.496L360.507 821.349L334.414 823.354L311.993 646.002L284.93 822.19L256.806 818.09L281.26 619.188L338.503 618.496Z" fill="#263238"/>
<path d="M293.647 629.083C293.683 629.087 293.674 629.35 293.628 629.827C293.593 630.305 293.455 630.988 293.213 631.811C292.978 632.638 292.577 633.586 292.031 634.585C291.463 635.571 290.736 636.599 289.837 637.559C288.924 638.508 287.935 639.287 286.98 639.906C286.011 640.503 285.085 640.953 284.271 641.231C283.462 641.516 282.787 641.689 282.312 641.749C281.838 641.82 281.576 641.842 281.57 641.807C281.551 641.712 282.591 641.532 284.137 640.888C284.913 640.574 285.794 640.104 286.718 639.504C287.629 638.882 288.575 638.118 289.458 637.201C290.328 636.271 291.041 635.287 291.614 634.345C292.165 633.39 292.589 632.486 292.861 631.695C293.425 630.118 293.55 629.07 293.647 629.083Z" fill="#12395E"/>
<path d="M312.76 627.642C312.904 627.642 313.02 630.67 313.02 634.405C313.02 638.141 312.903 641.168 312.76 641.168C312.616 641.168 312.5 638.141 312.5 634.405C312.5 630.67 312.617 627.642 312.76 627.642Z" fill="#12395E"/>
<path d="M338.359 638.599C338.36 638.652 337.408 638.716 335.939 638.311C334.484 637.918 332.517 636.952 330.949 635.204C329.382 633.453 328.637 631.392 328.406 629.903C328.164 628.399 328.331 627.459 328.384 627.466C328.474 627.466 328.441 628.397 328.767 629.831C329.082 631.255 329.848 633.193 331.337 634.856C332.827 636.517 334.669 637.491 336.05 637.96C337.439 638.44 338.368 638.509 338.359 638.599Z" fill="#12395E"/>
<path d="M285.718 815.71C285.715 815.746 285.311 815.739 284.583 815.694C283.855 815.652 282.803 815.56 281.507 815.42C278.914 815.142 275.343 814.634 271.439 813.854C267.534 813.07 264.043 812.164 261.543 811.422C260.293 811.052 259.287 810.732 258.599 810.49C257.91 810.25 257.535 810.102 257.545 810.067C257.556 810.033 257.951 810.116 258.657 810.296C259.47 810.506 260.466 810.763 261.641 811.067C264.16 811.716 267.652 812.562 271.542 813.343C275.431 814.12 278.98 814.683 281.554 815.054C282.755 815.226 283.774 815.372 284.605 815.491C285.324 815.599 285.721 815.674 285.718 815.71Z" fill="#12395E"/>
<path d="M359.977 813.463C359.976 813.543 358.487 813.566 356.088 813.682C353.689 813.797 350.38 814.041 346.752 814.539C343.123 815.042 339.871 815.704 337.531 816.244C335.19 816.782 333.751 817.164 333.728 817.087C333.718 817.053 334.066 816.917 334.705 816.702C335.343 816.483 336.278 816.203 337.442 815.887C339.769 815.254 343.03 814.53 346.681 814.024C350.331 813.523 353.666 813.336 356.077 813.315C357.283 813.303 358.259 813.32 358.933 813.358C359.606 813.391 359.977 813.427 359.977 813.463Z" fill="#12395E"/>
<path d="M277.576 617.824C277.576 617.824 326.822 547.731 316.824 532.624H320.869C320.869 532.624 324.351 537.019 320.869 550.146C317.639 562.323 280.183 626.344 280.183 626.344L277.576 617.824Z" fill="#12395E"/>
<path d="M320.869 537.588L310.28 534.192L302.077 535.584L301.811 538.694L302.84 544.52L310.339 544.197L320.869 540.49V538.411" fill="#7CB1DE"/>
<path d="M301.513 537.756L421.457 539.259V542.086L301.513 540.673V537.756Z" fill="#263238"/>
<path d="M362.583 669.35C362.583 669.35 362.455 669.145 362.228 668.732C361.996 668.304 361.663 667.691 361.23 666.893C360.355 665.256 359.077 662.866 357.433 659.79C354.146 653.593 349.399 644.644 343.522 633.565C331.797 611.355 315.57 580.62 297.535 546.458L297.48 546.354L297.522 546.244C298.064 544.825 298.649 543.295 299.237 541.758C313.449 504.662 326.314 471.082 335.632 446.761C340.309 434.625 344.094 424.802 346.717 417.995C348.032 414.613 349.055 411.985 349.755 410.183C350.103 409.303 350.371 408.628 350.557 408.156C350.74 407.7 350.847 407.472 350.847 407.472C350.847 407.472 350.774 407.713 350.607 408.175C350.431 408.651 350.18 409.332 349.853 410.22C349.173 412.029 348.182 414.67 346.906 418.066C344.32 424.887 340.587 434.73 335.976 446.892C326.695 471.227 313.88 504.826 299.723 541.944C299.136 543.481 298.55 545.011 298.008 546.43L297.995 546.216C315.975 580.407 332.152 611.168 343.842 633.396C349.657 644.507 354.355 653.482 357.608 659.697C359.215 662.792 360.464 665.197 361.32 666.845C361.734 667.654 362.051 668.274 362.273 668.708C362.486 669.128 362.583 669.35 362.583 669.35Z" fill="#263238"/>
<path d="M288.544 535.584H296.314L302.787 538.539C303.671 538.942 304.355 539.684 304.687 540.596L307.001 546.96C307.691 548.856 306.661 550.945 304.737 551.552L298.643 548.001C298.021 548.731 290.105 549.915 290.105 549.915L288.544 535.584Z" fill="#B78876"/>
<path d="M289.166 535.584C289.166 535.584 298.554 533.304 298.853 533.205C298.994 533.158 299.845 532.176 300.704 531.252C301.538 530.355 302.264 531.217 301.864 532.374C301.859 532.388 301.982 533.226 301.977 533.24C301.472 534.633 299.705 537.133 299.705 537.133L289.166 535.584Z" fill="#B78876"/>
<path d="M288.544 535.584C288.53 535.513 289.678 535.217 291.537 534.756C292.515 534.508 293.609 534.23 294.794 533.93C296.004 533.597 297.381 533.266 298.68 532.724C298.852 532.657 298.979 532.576 299.087 532.5C299.21 532.403 299.339 532.254 299.464 532.135C299.715 531.884 299.962 531.636 300.206 531.392L300.568 531.031L300.755 530.848C300.838 530.772 300.933 530.705 301.04 530.664C301.474 530.484 301.968 530.678 302.19 531.05C302.303 531.233 302.33 531.475 302.303 531.651C302.281 531.808 302.266 531.963 302.236 532.114C302.186 532.417 302.123 532.709 302.047 532.987C301.899 533.544 301.712 534.048 301.508 534.491C301.1 535.38 300.636 536.026 300.287 536.439C299.934 536.852 299.7 537.042 299.677 537.02C299.599 536.961 300.456 536.096 301.169 534.346C301.344 533.91 301.504 533.42 301.627 532.883C301.69 532.615 301.742 532.335 301.782 532.045C301.806 531.9 301.816 531.752 301.834 531.603C301.847 531.474 301.829 531.39 301.777 531.3C301.673 531.129 301.415 531.035 301.228 531.125C301.14 531.156 301.06 531.251 300.926 531.385L300.567 531.752C300.324 531.999 300.078 532.249 299.829 532.503C299.697 532.63 299.592 532.757 299.436 532.887C299.253 533.029 299.069 533.133 298.898 533.199C297.497 533.782 296.145 534.083 294.91 534.398C293.675 534.695 292.557 534.932 291.616 535.118C289.734 535.486 288.558 535.654 288.544 535.584Z" fill="#AA6550"/>
<path d="M305.824 544.52C305.767 544.551 305.393 543.935 305.067 542.845C304.741 541.779 304.384 540.228 303.159 539.115C301.924 538.038 300.395 537.558 299.41 537.009C298.394 536.491 297.862 536.004 297.904 535.952C297.95 535.89 298.534 536.254 299.566 536.675C300.079 536.891 300.704 537.126 301.391 537.432C302.075 537.737 302.834 538.126 303.509 538.729C304.882 539.984 305.191 541.695 305.422 542.749C305.652 543.843 305.896 544.487 305.824 544.52Z" fill="#AA6550"/>
<path d="M307.077 548.732C306.991 548.738 306.92 548.065 306.618 547.038C306.321 546.011 305.732 544.641 304.749 543.343C303.759 542.05 302.595 541.116 301.685 540.556C300.775 539.991 300.145 539.744 300.175 539.662C300.191 539.608 300.873 539.733 301.867 540.236C302.858 540.732 304.126 541.669 305.164 543.028C306.197 544.39 306.762 545.861 306.976 546.949C307.195 548.04 307.133 548.731 307.077 548.732Z" fill="#AA6550"/>
<path d="M305.619 551.425C305.447 551.477 305.219 549.145 303.396 547.13C301.586 545.129 299.405 544.365 299.496 544.197C299.519 544.138 300.073 544.265 300.904 544.652C301.73 545.039 302.835 545.723 303.785 546.783C304.734 547.845 305.263 549.056 305.481 549.947C305.7 550.846 305.677 551.419 305.619 551.425Z" fill="#AA6550"/>
<path d="M349.854 402.469C348.727 402.469 347.854 403.455 348.004 404.573C348.748 410.124 351.727 425.18 362.583 431.597C376.022 439.541 407.398 469.778 412.211 501.622C417.304 535.317 417.371 545.796 417.371 545.796C417.371 545.796 424.22 612.659 389.358 643.443C365.678 664.353 359.251 667.269 361.016 683.746H362.583C362.583 683.746 361.016 671.687 376.61 659.181C392.204 646.674 403.032 635.445 411.034 621.532C411.034 621.532 420.556 604.805 422.041 581.607C422.893 568.29 426.761 553.568 430.882 548.37L434.404 544.52C434.404 544.52 423.379 534.192 421.473 525.903C419.812 518.681 415.833 492.686 413.373 485.546C408.965 472.748 403.271 466.056 396.702 456.414C392.514 450.267 375.005 434.247 364.49 427.569C353.975 420.891 349.854 407.209 349.854 402.469Z" fill="#12395E"/>
<path d="M428.25 542.319C428.257 542.325 428.167 542.437 427.986 542.65C427.811 542.867 427.521 543.165 427.189 543.594C426.503 544.435 425.553 545.732 424.553 547.534C423.548 549.332 422.55 551.663 421.737 554.474C420.926 557.286 420.336 560.581 420.042 564.256C419.734 567.932 419.708 571.978 419.683 576.325C419.666 578.499 419.643 580.749 419.543 583.068C419.503 584.228 419.391 585.401 419.292 586.59C419.183 587.779 419.122 588.989 418.925 590.199C417.742 599.926 414.663 610.417 409.531 620.503C404.343 630.57 397.57 639.155 390.377 645.807C389.505 646.668 388.546 647.412 387.653 648.205C386.754 648.991 385.854 649.751 384.936 650.461C383.112 651.895 381.307 653.237 379.574 654.547C376.106 657.16 372.942 659.688 370.369 662.326C367.78 664.945 365.849 667.697 364.522 670.299C363.207 672.908 362.471 675.347 362.183 677.383C361.885 679.419 361.947 681.031 362.07 682.107C362.114 682.648 362.214 683.052 362.245 683.329C362.287 683.605 362.304 683.747 362.295 683.749C362.295 683.749 362.134 683.198 361.966 682.12C361.808 681.042 361.712 679.416 361.982 677.354C362.242 675.293 362.957 672.817 364.261 670.168C365.576 667.527 367.51 664.727 370.104 662.069C372.681 659.392 375.851 656.834 379.312 654.203C381.041 652.884 382.839 651.537 384.652 650.102C385.565 649.392 386.457 648.633 387.349 647.848C388.235 647.057 389.186 646.315 390.051 645.456C397.187 638.822 403.909 630.277 409.068 620.266C414.171 610.236 417.246 599.81 418.449 590.139C418.649 588.936 418.712 587.732 418.824 586.55C418.926 585.367 419.042 584.201 419.086 583.046C419.193 580.738 419.225 578.492 419.251 576.32C419.295 571.976 419.342 567.916 419.675 564.223C419.995 560.531 420.614 557.215 421.458 554.39C422.303 551.566 423.337 549.228 424.376 547.432C425.41 545.632 426.393 544.347 427.108 543.524C427.455 543.104 427.759 542.817 427.947 542.611C428.141 542.413 428.243 542.313 428.25 542.319Z" fill="#263238"/>
<path d="M349.214 403.311C349.223 403.311 349.239 403.455 349.261 403.738C349.284 404.044 349.316 404.459 349.357 404.989C349.476 406.085 349.687 407.701 350.212 409.728C350.744 411.749 351.57 414.188 352.923 416.833C354.279 419.464 356.13 422.354 358.881 424.886C361.597 427.464 364.775 430.067 368.269 432.756C371.758 435.451 375.568 438.232 379.443 441.344C383.292 444.494 387.125 448.053 390.781 452.046C394.446 456.03 397.853 460.505 400.992 465.306C404.116 470.121 406.801 475.061 408.997 480.01C411.172 484.969 412.892 489.909 414.233 494.698C415.544 499.498 416.397 504.155 417.001 508.535C417.555 512.923 417.815 517.027 418.292 520.743C418.746 524.46 419.41 527.792 420.322 530.619C421.224 533.45 422.339 535.772 423.436 537.549C424.535 539.329 425.589 540.577 426.343 541.378C426.711 541.789 427.021 542.073 427.221 542.274C427.422 542.473 427.522 542.579 427.516 542.586C427.516 542.586 427.047 542.238 426.267 541.452C425.485 540.67 424.398 539.435 423.264 537.657C422.131 535.882 420.98 533.553 420.045 530.709C419.099 527.868 418.406 524.517 417.926 520.79C417.425 517.064 417.143 512.957 416.572 508.59C415.952 504.231 415.087 499.6 413.77 494.825C412.423 490.062 410.702 485.148 408.531 480.216C406.34 475.294 403.665 470.381 400.556 465.589C397.432 460.811 394.046 456.357 390.404 452.388C386.772 448.41 382.965 444.861 379.142 441.716C375.288 438.603 371.488 435.81 368.005 433.096C364.517 430.388 361.341 427.759 358.628 425.152C355.858 422.569 354.005 419.626 352.664 416.964C351.325 414.285 350.52 411.818 350.016 409.777C349.518 407.73 349.339 406.1 349.253 404.997C349.216 404.445 349.218 404.022 349.209 403.739C349.203 403.456 349.205 403.311 349.214 403.311Z" fill="#263238"/>
<path d="M1073.5 629.5C1073.5 629.5 947 514 769 484C611.5 468 457 533.5 457 533.5" stroke="#1D5B96" strokeLinecap="round" strokeDasharray="8 8"/>
</svg>

