<svg width="1440" height="2020" viewBox="0 0 1440 2020" fill="none" xmlns="http://www.w3.org/2000/svg">
<rect width="1440" height="2020" fill="#FBFBFE"/>
<g filter="url(#filter0_f_347_1016)">
<path d="M862.373 951.994C864.911 930.083 868.18 910.866 858.37 886.186C851.918 869.955 835.636 849.484 821.577 843.362C789.182 829.254 751.12 835.888 727.604 866.324C718.356 878.293 705.852 901.412 694.793 910.895C681.657 922.16 664.489 923.714 648.404 922.757C632.32 921.8 616.066 918.75 600.225 922.31C578.217 927.256 558.559 945.622 549.104 970.068C539.649 994.515 540.646 1024.4 551.696 1047.79C557.414 1055.61 563.751 1062.77 570.727 1068.94C607.81 1101.75 654.596 1113.32 701.524 1112.98C741.935 1112.69 785.188 1104.11 814.587 1070.63C842.013 1039.4 857.164 996.959 862.373 951.994Z" fill="#B9CCDE"/>
</g>
<g filter="url(#filter1_f_347_1016)">
<path d="M445.513 1539.43C447.005 1517.42 449.354 1498.07 438.379 1473.89C431.162 1457.98 413.923 1438.31 399.588 1432.87C366.558 1420.32 328.855 1428.76 306.816 1460.28C298.148 1472.67 286.76 1496.36 276.166 1506.36C263.581 1518.24 246.507 1520.61 230.395 1520.42C214.283 1520.23 197.902 1517.96 182.248 1522.27C160.501 1528.26 141.74 1547.54 133.461 1572.41C125.182 1597.28 127.601 1627.08 139.753 1649.92C145.837 1657.46 152.508 1664.3 159.77 1670.14C198.374 1701.14 245.659 1710.48 292.517 1707.9C332.868 1705.68 375.663 1695.05 403.434 1660.21C429.341 1627.71 442.452 1584.59 445.513 1539.43Z" fill="#B9CCDE"/>
</g>
<g filter="url(#filter2_f_347_1016)">
<path d="M1275.51 1684.34C1272.7 1662.27 1271.23 1642.57 1256.08 1621.92C1246.12 1608.34 1225.83 1593.92 1211.06 1592.66C1177.03 1589.74 1142.56 1608.8 1127.52 1646.09C1121.61 1660.75 1115.26 1687.3 1107.04 1700.15C1097.27 1715.42 1081.38 1722.63 1065.92 1727.04C1050.46 1731.45 1034.35 1733.89 1020.19 1742.6C1000.52 1754.7 986.269 1779.01 983.123 1805.83C979.976 1832.65 988.02 1861.26 1004.04 1880.25C1011.31 1885.93 1019.02 1890.76 1027.09 1894.42C1070 1913.89 1117.06 1909.57 1161.42 1893.67C1199.62 1879.97 1238.55 1857.3 1258.44 1815.12C1276.99 1775.77 1281.25 1729.62 1275.51 1684.34Z" fill="#B9CCDE"/>
</g>
<g filter="url(#filter3_f_347_1016)">
<path d="M1309.03 345.154C1311.25 323.198 1314.23 303.922 1304.06 279.44C1297.36 263.34 1280.78 243.194 1266.63 237.349C1234.03 223.881 1196.06 231.261 1173 262.15C1163.93 274.299 1151.77 297.657 1140.85 307.355C1127.88 318.875 1110.73 320.766 1094.64 320.124C1078.54 319.484 1062.24 316.753 1046.45 320.624C1024.52 326.001 1005.13 344.748 996.038 369.374C986.946 394.001 988.385 423.86 999.782 447.024C1005.62 454.734 1012.06 461.761 1019.12 467.795C1056.69 499.871 1103.65 510.524 1150.57 509.26C1190.98 508.173 1234.1 498.748 1263.01 464.702C1289.97 432.943 1304.49 390.211 1309.03 345.154Z" fill="#B9CCDE"/>
</g>
<g filter="url(#filter4_f_347_1016)">
<path d="M72.126 436.018C70.1329 458.001 67.3431 477.314 77.7638 501.663C84.6169 517.676 101.404 537.607 115.612 543.27C148.349 556.317 186.237 548.45 208.991 517.267C217.939 505.003 229.865 481.49 240.686 471.652C253.538 459.967 270.663 457.856 286.768 458.29C302.872 458.724 319.198 461.244 334.947 457.172C356.826 451.513 376.023 432.518 384.868 407.777C393.712 383.036 391.973 353.198 380.344 330.182C374.434 322.548 367.92 315.604 360.793 309.662C322.903 278.071 275.841 268.023 228.933 269.889C188.54 271.497 145.511 281.475 116.951 315.889C90.308 347.992 76.2161 390.908 72.126 436.018Z" fill="#B9CCDE"/>
</g>
<defs>
<filter id="filter0_f_347_1016" x="472.652" y="766.281" width="462.354" height="416.708" filterUnits="userSpaceOnUse" color-interpolation-filters="sRGB">
<feFlood flood-opacity="0" result="BackgroundImageFix"/>
<feBlend mode="normal" in="SourceGraphic" in2="BackgroundImageFix" result="shape"/>
<feGaussianBlur stdDeviation="35" result="effect1_foregroundBlur_347_1016"/>
</filter>
<filter id="filter1_f_347_1016" x="58.5986" y="1357.29" width="458.21" height="421.012" filterUnits="userSpaceOnUse" color-interpolation-filters="sRGB">
<feFlood flood-opacity="0" result="BackgroundImageFix"/>
<feBlend mode="normal" in="SourceGraphic" in2="BackgroundImageFix" result="shape"/>
<feGaussianBlur stdDeviation="35" result="effect1_foregroundBlur_347_1016"/>
</filter>
<filter id="filter2_f_347_1016" x="912.45" y="1522.36" width="435.438" height="455.014" filterUnits="userSpaceOnUse" color-interpolation-filters="sRGB">
<feFlood flood-opacity="0" result="BackgroundImageFix"/>
<feBlend mode="normal" in="SourceGraphic" in2="BackgroundImageFix" result="shape"/>
<feGaussianBlur stdDeviation="35" result="effect1_foregroundBlur_347_1016"/>
</filter>
<filter id="filter3_f_347_1016" x="920.104" y="160.911" width="461.118" height="418.449" filterUnits="userSpaceOnUse" color-interpolation-filters="sRGB">
<feFlood flood-opacity="0" result="BackgroundImageFix"/>
<feBlend mode="normal" in="SourceGraphic" in2="BackgroundImageFix" result="shape"/>
<feGaussianBlur stdDeviation="35" result="effect1_foregroundBlur_347_1016"/>
</filter>
<filter id="filter4_f_347_1016" x="0.225586" y="199.675" width="460.237" height="419.629" filterUnits="userSpaceOnUse" color-interpolation-filters="sRGB">
<feFlood flood-opacity="0" result="BackgroundImageFix"/>
<feBlend mode="normal" in="SourceGraphic" in2="BackgroundImageFix" result="shape"/>
<feGaussianBlur stdDeviation="35" result="effect1_foregroundBlur_347_1016"/>
</filter>
</defs>
</svg>
