<svg width="1440" height="2020" viewBox="0 0 1440 2020" fill="none" xmlns="http://www.w3.org/2000/svg">
<g filter="url(#filter0_f_353_1010)">
<path d="M158.126 419.064C156.133 441.047 153.343 460.36 163.764 484.709C170.617 500.722 187.404 520.653 201.612 526.315C234.349 539.363 272.237 531.496 294.991 500.313C303.939 488.049 315.865 464.536 326.686 454.698C339.538 443.013 356.663 440.902 372.768 441.336C388.872 441.77 405.198 444.29 420.947 440.218C442.826 434.558 462.023 415.564 470.868 390.823C479.712 366.082 477.973 336.244 466.344 313.228C460.434 305.594 453.92 298.65 446.793 292.708C408.903 261.117 361.841 251.069 314.933 252.935C274.54 254.543 231.511 264.521 202.951 298.935C176.308 331.038 162.216 373.954 158.126 419.064Z" fill="#B9CCDE"/>
</g>
<g filter="url(#filter1_f_353_1010)">
<path d="M1280.74 368.336C1282.95 346.38 1285.94 327.104 1275.76 302.622C1269.07 286.521 1252.48 266.376 1238.33 260.531C1205.73 247.063 1167.77 254.442 1144.7 285.332C1135.63 297.48 1123.47 320.839 1112.55 330.537C1099.58 342.056 1082.44 343.948 1066.34 343.306C1050.24 342.666 1033.94 339.935 1018.16 343.805C996.221 349.183 976.836 367.93 967.743 392.556C958.651 417.183 960.09 447.041 971.487 470.206C977.32 477.916 983.763 484.943 990.83 490.976C1028.4 523.053 1075.36 533.706 1122.28 532.442C1162.68 531.354 1205.81 521.929 1234.71 487.884C1261.67 456.125 1276.2 413.392 1280.74 368.336Z" fill="#B9CCDE"/>
</g>
<g filter="url(#filter2_f_353_1010)">
<path d="M539.185 1016.25C537.447 1038.24 480.765 1097.07 535.368 1124.49C586.585 1112.01 641.835 1085.83 656.108 1091.44C688.996 1104.35 726.791 1096.33 749.181 1065.06C757.987 1052.76 769.639 1029.2 780.345 1019.32C793.061 1007.59 810.161 1005.41 826.27 1005.78C842.379 1006.15 858.734 1008.6 874.434 1004.47C896.247 998.722 915.222 979.653 923.779 954.877C932.336 930.102 930.25 900.273 918.354 877.304C912.355 869.694 905.762 862.776 898.566 856.863C860.31 825.425 813.133 815.564 766.249 817.617C725.876 819.385 617.684 797.445 589.525 831.971C563.256 864.179 542.751 971.129 539.185 1016.25Z" fill="#B9CCDE"/>
</g>
<g filter="url(#filter3_f_353_1010)">
<path d="M476.431 1556.97C477.922 1534.96 480.271 1515.61 469.297 1491.42C462.079 1475.52 444.84 1455.85 430.505 1450.4C397.475 1437.85 359.772 1446.29 337.733 1477.81C329.066 1490.21 317.677 1513.9 307.083 1523.9C294.499 1535.78 277.424 1538.15 261.312 1537.96C245.2 1537.77 228.819 1535.5 213.166 1539.81C191.419 1545.8 172.658 1565.08 164.379 1589.95C156.099 1614.82 158.519 1644.62 170.671 1667.45C176.755 1675 183.425 1681.84 190.687 1687.67C229.292 1718.68 276.576 1728.01 323.434 1725.44C363.785 1723.22 406.581 1712.59 434.352 1677.75C460.259 1645.25 473.37 1602.13 476.431 1556.97Z" fill="#B9CCDE"/>
</g>
<g filter="url(#filter4_f_353_1010)">
<path d="M1246.94 1512.46C1244.14 1490.39 1242.67 1470.7 1227.52 1450.05C1217.55 1436.47 1197.27 1422.04 1182.5 1420.78C1148.47 1417.87 1114 1436.93 1098.96 1474.21C1093.05 1488.88 1086.7 1515.42 1078.48 1528.28C1068.71 1543.55 1052.82 1550.75 1037.36 1555.16C1021.9 1559.58 1005.78 1562.02 991.628 1570.72C971.961 1582.82 957.707 1607.13 954.561 1633.95C951.415 1660.77 959.459 1689.39 975.48 1708.37C982.753 1714.05 990.454 1718.88 998.526 1722.54C1041.44 1742.02 1088.5 1737.7 1132.86 1721.79C1171.06 1708.09 1209.98 1685.42 1229.87 1643.24C1248.43 1603.89 1252.69 1557.75 1246.94 1512.46Z" fill="#B9CCDE"/>
</g>
<defs>
<filter id="filter0_f_353_1010" x="86.2255" y="182.721" width="460.237" height="419.628" filterUnits="userSpaceOnUse" color-interpolation-filters="sRGB">
<feFlood flood-opacity="0" result="BackgroundImageFix"/>
<feBlend mode="normal" in="SourceGraphic" in2="BackgroundImageFix" result="shape"/>
<feGaussianBlur stdDeviation="35" result="effect1_foregroundBlur_353_1010"/>
</filter>
<filter id="filter1_f_353_1010" x="891.809" y="184.092" width="461.118" height="418.449" filterUnits="userSpaceOnUse" color-interpolation-filters="sRGB">
<feFlood flood-opacity="0" result="BackgroundImageFix"/>
<feBlend mode="normal" in="SourceGraphic" in2="BackgroundImageFix" result="shape"/>
<feGaussianBlur stdDeviation="35" result="effect1_foregroundBlur_353_1010"/>
</filter>
<filter id="filter2_f_353_1010" x="441.687" y="742.358" width="557.308" height="452.135" filterUnits="userSpaceOnUse" color-interpolation-filters="sRGB">
<feFlood flood-opacity="0" result="BackgroundImageFix"/>
<feBlend mode="normal" in="SourceGraphic" in2="BackgroundImageFix" result="shape"/>
<feGaussianBlur stdDeviation="35" result="effect1_foregroundBlur_353_1010"/>
</filter>
<filter id="filter3_f_353_1010" x="89.516" y="1374.83" width="458.21" height="421.012" filterUnits="userSpaceOnUse" color-interpolation-filters="sRGB">
<feFlood flood-opacity="0" result="BackgroundImageFix"/>
<feBlend mode="normal" in="SourceGraphic" in2="BackgroundImageFix" result="shape"/>
<feGaussianBlur stdDeviation="35" result="effect1_foregroundBlur_353_1010"/>
</filter>
<filter id="filter4_f_353_1010" x="883.888" y="1350.49" width="435.438" height="455.014" filterUnits="userSpaceOnUse" color-interpolation-filters="sRGB">
<feFlood flood-opacity="0" result="BackgroundImageFix"/>
<feBlend mode="normal" in="SourceGraphic" in2="BackgroundImageFix" result="shape"/>
<feGaussianBlur stdDeviation="35" result="effect1_foregroundBlur_353_1010"/>
</filter>
</defs>
</svg>
