<svg width="24" height="24" viewBox="0 0 24 24" fill="none" xmlns="http://www.w3.org/2000/svg">
<g clip-path="url(#clip0_394_1213)">
<path d="M23.0968 20.536L18.0465 1.67506C17.7806 0.712654 16.9138 0.0178978 15.8844 0.0178978C15.6795 0.0178978 15.4819 0.0455578 15.2932 0.0968103L15.3087 0.0935562L12.9531 0.724857C12.6888 0.801329 12.4579 0.91685 12.2538 1.06654L12.2603 1.06247C11.8619 0.422223 11.1634 0.0024406 10.3657 0H7.92796C7.28641 0.000813532 6.70828 0.27416 6.30334 0.710213L6.30171 0.71184C5.89515 0.274974 5.31702 0.0016271 4.67546 0.00081357H2.23609C1.00177 0.00244063 0.00162625 1.00308 0 2.23803V21.7628C0.00162625 22.9977 1.00177 23.9984 2.23609 24H4.67546C5.31702 23.9984 5.89515 23.7258 6.30009 23.2898L6.30171 23.2882C6.70828 23.7258 7.28641 23.9984 7.92796 24H10.3657C11.6 23.9984 12.6002 22.9977 12.6018 21.7628V8.05641L16.4227 22.3258C16.6886 23.2873 17.5545 23.9813 18.5823 23.9829C18.5831 23.9829 18.5848 23.9829 18.5864 23.9829C18.7905 23.9829 18.9881 23.9553 19.1759 23.9032L19.1605 23.9073L21.5169 23.2768C22.478 23.0116 23.1724 22.1443 23.1724 21.1152C23.1724 20.9102 23.1448 20.7109 23.0927 20.5222L23.0968 20.5376V20.536ZM13.5499 6.88167L17.8676 5.72401L20.9192 17.1191L16.6007 18.276L13.5499 6.88167ZM13.2677 1.90448L15.6226 1.27318C15.7014 1.25121 15.7925 1.2382 15.8868 1.2382C16.3544 1.2382 16.7479 1.55466 16.8658 1.98502L16.8675 1.99234L17.5513 4.54602L13.2328 5.70367L12.6002 3.34036V2.48209C12.7246 2.19979 12.9653 1.98827 13.2604 1.9061L13.2677 1.90448ZM7.92715 1.22111H10.3649C10.926 1.22192 11.3805 1.67669 11.3813 2.23803V4.88119L6.91074 4.882V2.23803C6.91156 1.67669 7.36609 1.22192 7.92715 1.22111ZM5.69106 17.8985H1.21887V6.1023L5.69106 6.10149V17.8985ZM6.91074 6.1023L11.3813 6.10149V17.8985H6.91074V6.1023ZM2.23528 1.22111H4.67465C5.23571 1.22192 5.69024 1.67669 5.69106 2.23803V4.88119L1.21887 4.882V2.23803C1.21969 1.67669 1.67422 1.22192 2.23528 1.22111ZM4.67465 22.7797H2.23528C1.67422 22.7789 1.21969 22.3241 1.21887 21.7628V19.1188H5.69106V21.7628C5.69024 22.3241 5.23571 22.7789 4.67465 22.7797ZM10.3649 22.7797H7.92715C7.36609 22.7789 6.91156 22.3241 6.91074 21.7628V19.1188H11.3813V21.7628C11.3805 22.3241 10.926 22.7789 10.3649 22.7797ZM21.8153 21.6212C21.682 21.8531 21.4657 22.0239 21.2079 22.0947L21.2006 22.0963L18.8442 22.7268C18.7661 22.748 18.6767 22.7602 18.5848 22.7602C18.1172 22.7602 17.7229 22.4453 17.6025 22.0158L17.6009 22.0085L16.9171 19.454L21.2356 18.2971L21.9194 20.8516C21.9413 20.9297 21.9535 21.02 21.9535 21.1128C21.9535 21.2999 21.9023 21.4756 21.8129 21.6253L21.8153 21.6212Z" fill="#FBFBFE"/>
</g>
<defs>
<clipPath id="clip0_394_1213">
<rect width="24" height="24" fill="white"/>
</clipPath>
</defs>
</svg>
