
<svg width="207" height="71" viewBox="0 0 207 71" fill="none" xmlns="http://www.w3.org/2000/svg">
<path d="M189.294 20.3103L192.841 20.6207L186.509 48.9497L183 48.6427L189.294 20.3103Z" fill="#040316"/>
<path d="M155.656 32.5182L159.165 32.8252L155.771 47.9774L152.262 47.6703L155.656 32.5182ZM156.413 27.3975C156.468 26.83 156.728 26.3677 157.193 26.0104C157.659 25.653 158.206 25.5019 158.835 25.5569C159.313 25.5987 159.752 25.7864 160.151 26.1198C160.575 26.4555 160.745 26.9306 160.661 27.5452C160.581 28.1104 160.309 28.5717 159.843 28.929C159.378 29.2863 158.831 29.4375 158.202 29.3824C157.724 29.3406 157.285 29.153 156.886 28.8195C156.489 28.4614 156.331 27.9874 156.413 27.3975Z" fill="#040316"/>
<path d="M131.989 46.8758L138.283 18.5435L141.83 18.8538L135.498 47.1829L131.989 46.8758ZM141.531 37.4486L146.441 48.1403L142.328 47.7804L138.742 39.1451L141.531 37.4486ZM135.476 42.2552L135.754 38.9583L146.886 32.3943L148.75 34.3859L135.476 42.2552Z" fill="#040316"/>
<path d="M130.081 26.7909C129.252 26.1711 128.305 25.6031 127.238 25.0869C126.171 24.5706 125.098 24.2529 124.019 24.1335C123.141 24.0318 122.376 24.0645 121.726 24.2315C121.104 24.376 120.562 24.6023 120.101 24.9103C119.665 25.2205 119.326 25.5888 119.082 26.0152C118.838 26.4417 118.683 26.8635 118.618 27.2807C118.494 28.0411 118.643 28.7383 119.064 29.3722C119.511 30.0083 120.126 30.5971 120.912 31.1384C121.699 31.6551 122.526 32.1628 123.391 32.6614C124.403 33.2226 125.356 33.8658 126.25 34.5908C127.172 35.2934 127.875 36.1635 128.359 37.2009C128.843 38.2384 128.934 39.5399 128.632 41.1057C128.469 42.0119 128.117 42.9016 127.576 43.7748C127.061 44.6502 126.367 45.4104 125.493 46.0554C124.645 46.7026 123.609 47.1842 122.387 47.5002C121.189 47.8183 119.813 47.8845 118.258 47.6987C117.08 47.5459 115.965 47.2742 114.911 46.8835C113.885 46.4703 112.93 45.9887 112.044 45.4385C111.185 44.8658 110.421 44.2392 109.751 43.5586L111.972 41.0289C112.478 41.5707 113.087 42.0967 113.799 42.6068C114.514 43.0922 115.286 43.508 116.115 43.8542C116.972 44.178 117.813 44.4008 118.639 44.5228C119.72 44.6174 120.693 44.5284 121.556 44.2556C122.447 43.9604 123.176 43.5017 123.743 42.8796C124.337 42.2351 124.715 41.472 124.876 40.5905C125.002 39.8054 124.867 39.097 124.471 38.4653C124.102 37.8111 123.574 37.2301 122.888 36.7222C122.228 36.1918 121.488 35.7042 120.669 35.2593C119.922 34.8457 119.155 34.3805 118.367 33.8638C117.605 33.3493 116.911 32.7786 116.286 32.1518C115.661 31.5249 115.199 30.7879 114.9 29.9408C114.626 29.0958 114.604 28.1361 114.834 27.0616C115.097 25.6417 115.668 24.4478 116.547 23.4799C117.426 22.5119 118.521 21.8116 119.831 21.3789C121.166 20.9484 122.626 20.8025 124.211 20.9411C125.388 21.0939 126.455 21.3489 127.41 21.7061C128.367 22.0387 129.231 22.4252 130 22.8657C130.77 23.3062 131.46 23.7771 132.072 24.2784L130.081 26.7909Z" fill="#1D5B96"/>
<path d="M101.73 32.2273L102.071 36.6844L101.882 36.0901C102.286 35.1492 102.868 34.3568 103.626 33.713C104.409 33.0445 105.218 32.5368 106.052 32.1902C106.912 31.8188 107.657 31.6331 108.289 31.6331L108.1 35.0501C106.912 34.9759 105.863 35.1987 104.953 35.7187C104.068 36.2387 103.361 36.932 102.83 37.7987C102.324 38.6653 102.071 39.5939 102.071 40.5843V47.6042H98.5835V32.2273H101.73Z" fill="#040316"/>
<path d="M86.1656 47.9749C84.3711 47.9749 82.8293 47.6283 81.5402 46.935C80.2512 46.2169 79.2528 45.2512 78.5451 44.0379C77.8627 42.7998 77.5215 41.3884 77.5215 39.8036C77.5215 38.2932 77.9132 36.9189 78.6968 35.6809C79.4803 34.4428 80.5292 33.4523 81.8435 32.7095C83.1578 31.9666 84.6238 31.5952 86.2414 31.5952C88.314 31.5952 90.0327 32.1895 91.3975 33.378C92.7624 34.5666 93.6849 36.2009 94.1652 38.2808L81.2369 42.7379L80.4028 40.6951L91.0184 36.9066L90.2602 37.3894C89.9569 36.5723 89.4514 35.8666 88.7437 35.2723C88.036 34.6533 87.1134 34.3437 85.976 34.3437C85.0156 34.3437 84.1562 34.579 83.398 35.0494C82.6397 35.4951 82.0457 36.1142 81.6161 36.9066C81.1864 37.6989 80.9715 38.6027 80.9715 39.6179C80.9715 40.6827 81.199 41.6236 81.654 42.4407C82.1089 43.2331 82.7282 43.8645 83.5117 44.335C84.3205 44.7807 85.2304 45.0036 86.2414 45.0036C86.9238 45.0036 87.581 44.8798 88.2129 44.6321C88.87 44.3845 89.4766 44.0626 90.0327 43.6664L91.6629 46.2292C90.8794 46.7492 89.9948 47.1702 89.009 47.4921C88.0486 47.814 87.1008 47.9749 86.1656 47.9749Z" fill="#040316"/>
<path d="M65.5432 47.0231C64.4833 47.0231 63.4573 46.7709 62.465 46.2665C61.4953 45.7621 60.7399 45.0857 60.1986 44.2374L60.4016 43.2401V53.523H57.2896V32.235H59.9957L60.4354 35.8804L60.0972 34.8831C60.7737 34.0119 61.6306 33.2896 62.668 32.7165C63.7053 32.1433 64.8667 31.8567 66.1521 31.8567C67.4601 31.8567 68.6327 32.1777 69.67 32.8196C70.7299 33.4616 71.5643 34.3558 72.1732 35.5021C72.7821 36.6485 73.0865 37.9897 73.0865 39.5259C73.0865 41.062 72.7595 42.3918 72.1056 43.5152C71.4516 44.6387 70.5495 45.5099 69.3994 46.1289C68.2719 46.725 66.9865 47.0231 65.5432 47.0231ZM64.9343 44.4782C65.8364 44.4782 66.6595 44.2718 67.4037 43.8591C68.1704 43.4235 68.7793 42.8389 69.2303 42.1052C69.6813 41.3486 69.9068 40.5003 69.9068 39.5603C69.9068 38.5973 69.6926 37.749 69.2641 37.0153C68.8357 36.2587 68.2606 35.6626 67.539 35.227C66.8399 34.7914 66.0506 34.5736 65.1711 34.5736C64.3593 34.5736 63.6264 34.7341 62.9724 35.055C62.3184 35.376 61.7772 35.8231 61.3487 36.3963C60.9203 36.9466 60.6158 37.5885 60.4354 38.3222V40.6952C60.5482 41.4288 60.8188 42.0823 61.2472 42.6554C61.6757 43.2286 62.2057 43.6757 62.8371 43.9967C63.4911 44.3177 64.1902 44.4782 64.9343 44.4782Z" fill="#040316"/>
<path d="M43.1902 47.9749C42.0022 47.9749 40.8522 47.7026 39.7401 47.1578C38.6533 46.6131 37.8066 45.8826 37.1999 44.9664L37.4274 43.8893V54.9948H33.9395V32.0038H36.9725L37.4653 35.9409L37.0862 34.8637C37.8445 33.9228 38.8049 33.1428 39.9676 32.5238C41.1302 31.9047 42.4319 31.5952 43.8726 31.5952C45.3385 31.5952 46.6529 31.9419 47.8155 32.6352C49.0034 33.3285 49.9386 34.2942 50.6211 35.5323C51.3035 36.7704 51.6447 38.2189 51.6447 39.8779C51.6447 41.537 51.2782 42.9731 50.5452 44.1864C49.8123 45.3997 48.8012 46.3407 47.5122 47.0092C46.2485 47.653 44.8078 47.9749 43.1902 47.9749ZM42.5077 45.2264C43.5187 45.2264 44.4413 45.0036 45.2754 44.5579C46.1347 44.0874 46.8171 43.456 47.3226 42.6636C47.8282 41.8465 48.0809 40.9303 48.0809 39.9151C48.0809 38.8751 47.8408 37.9589 47.3606 37.1665C46.8803 36.3494 46.2358 35.7056 45.427 35.2352C44.6435 34.7647 43.7589 34.5295 42.7731 34.5295C41.8632 34.5295 41.0418 34.7028 40.3088 35.0494C39.5758 35.3961 38.9692 35.879 38.489 36.498C38.0088 37.0923 37.6675 37.7856 37.4653 38.578V41.1408C37.5917 41.9331 37.895 42.6388 38.3752 43.2579C38.8555 43.8769 39.4494 44.3598 40.1571 44.7064C40.8901 45.0531 41.6737 45.2264 42.5077 45.2264Z" fill="#040316"/>
<path d="M10.3789 38.0957C10.3789 39.309 10.6695 40.3985 11.2509 41.3642C11.8575 42.3051 12.6536 43.048 13.6394 43.5927C14.6251 44.1375 15.7372 44.4098 16.9757 44.4098C18.2647 44.4098 19.4147 44.1375 20.4258 43.5927C21.4368 43.048 22.2329 42.3051 22.8143 41.3642C23.3956 40.3985 23.6863 39.309 23.6863 38.0957V20.7502H27.288V38.2071C27.288 40.1632 26.8204 41.8718 25.8852 43.3327C24.9753 44.7936 23.7368 45.9203 22.1697 46.7127C20.628 47.505 18.8966 47.9012 16.9757 47.9012C15.0548 47.9012 13.3234 47.505 11.7817 46.7127C10.2399 45.9203 9.01402 44.7936 8.10412 43.3327C7.19421 41.8718 6.73926 40.1632 6.73926 38.2071V20.7502H10.3789V38.0957Z" fill="#1D5B96"/>
<path d="M2 68.9999C27.2752 45.7857 124.5 47 167 62" stroke="#1D5B96" stroke-width="4" stroke-linecap="round"/>
<path d="M180.143 3.42511C177.942 3.00035 176.012 3.29517 174.4 4.30398C171.881 5.88127 171.075 8.62363 170.889 9.42558C170.626 10.5542 161.812 49.2788 161.812 49.2788C161.754 49.5326 161.766 49.7981 161.844 50.0463C162.577 52.3537 165.515 62.7887 165.545 62.8944C165.694 63.4294 166.136 63.8382 166.687 63.9565C167.082 64.0405 167.487 63.9649 167.817 63.7581C167.948 63.6763 168.066 63.5749 168.168 63.4542C168.24 63.3673 175.565 54.6872 176.795 53.2941C176.956 53.1102 177.071 52.8898 177.126 52.6533C177.483 51.1276 185.869 15.2634 186.383 12.8187C186.919 10.294 186.634 8.1896 185.539 6.56936C184.456 4.96955 182.643 3.90987 180.143 3.42511ZM173.038 13.6029C173.775 13.3537 175.607 12.9046 178.135 13.4599C180.69 14.0208 182.25 15.5132 182.589 15.8639C180.769 23.7588 176.54 41.8704 174.871 49.0088C173.847 48.3258 172.44 47.6091 170.675 47.2234C168.521 46.7517 166.709 46.8586 165.411 47.0928C165.603 46.2524 165.83 45.252 166.086 44.1282C167.996 35.7404 171.47 20.479 173.038 13.6029ZM165.052 50.2311C165.859 49.9779 167.63 49.6014 170.025 50.1259C171.871 50.5313 173.196 51.4216 173.919 52.0187C172.53 53.6605 169.544 57.3431 167.613 59.6292C166.829 56.863 165.705 52.497 165.052 50.2311ZM183.422 12.2031C183.404 12.2869 183.373 12.4239 183.337 12.5882C182.291 11.8373 180.761 10.9886 178.783 10.5557C176.762 10.1128 175.048 10.1793 173.771 10.3824C173.803 10.2467 173.827 10.1407 173.837 10.0996C173.89 9.87125 174.404 7.83509 176.029 6.81763C176.965 6.23185 178.155 6.07374 179.566 6.34753C181.24 6.67259 182.402 7.29865 183.019 8.21095C183.649 9.14289 183.784 10.4862 183.422 12.2031Z" fill="#12395E"/>
<path d="M173.038 13.6029C173.775 13.3537 175.607 12.9046 178.135 13.4599C180.69 14.0208 182.25 15.5132 182.589 15.8639C180.769 23.7588 176.54 41.8704 174.871 49.0088C173.847 48.3258 172.44 47.6091 170.675 47.2234C168.521 46.7517 166.709 46.8586 165.411 47.0928L166.086 44.1282C167.996 35.7404 171.47 20.479 173.038 13.6029Z" fill="#12395E"/>
</svg>
